<?xml version="1.0" encoding="UTF-8"?>
<!DOCTYPE svg PUBLIC "-//W3C//DTD SVG 1.1//EN" "http://www.w3.org/Graphics/SVG/1.1/DTD/svg11.dtd">
<!-- Creator: CorelDRAW -->
<svg xmlns="http://www.w3.org/2000/svg" xml:space="preserve" width="2048px" height="2048px" style="shape-rendering:geometricPrecision; text-rendering:geometricPrecision; image-rendering:optimizeQuality; fill-rule:evenodd; clip-rule:evenodd"
viewBox="0 0 2048 2048"
 xmlns:xlink="http://www.w3.org/1999/xlink">
 <defs>
  <style type="text/css">
   <![CDATA[
    .fil2 {fill:none}
    .fil26 {fill:#006064}
    .fil24 {fill:#00838F}
    .fil27 {fill:#0097A7}
    .fil4 {fill:#494F56}
    .fil3 {fill:#555A61}
    .fil10 {fill:#7B838E}
    .fil1 {fill:#90CAF9}
    .fil9 {fill:#989FAA}
    .fil0 {fill:#BBDEFB}
    .fil25 {fill:#FFA000}
    .fil22 {fill:#00695C;fill-rule:nonzero}
    .fil16 {fill:#1565C0;fill-rule:nonzero}
    .fil5 {fill:#2A3541;fill-rule:nonzero}
    .fil21 {fill:#2E7D32;fill-rule:nonzero}
    .fil8 {fill:#49692E;fill-rule:nonzero}
    .fil11 {fill:#526072;fill-rule:nonzero}
    .fil23 {fill:#7B1FA2;fill-rule:nonzero}
    .fil14 {fill:#7CB342;fill-rule:nonzero}
    .fil6 {fill:#873636;fill-rule:nonzero}
    .fil19 {fill:#8BC34A;fill-rule:nonzero}
    .fil7 {fill:#8E652D;fill-rule:nonzero}
    .fil18 {fill:#C2185B;fill-rule:nonzero}
    .fil20 {fill:#C62828;fill-rule:nonzero}
    .fil15 {fill:#CFD8DC;fill-rule:nonzero}
    .fil12 {fill:#EF5350;fill-rule:nonzero}
    .fil17 {fill:#FFA000;fill-rule:nonzero}
    .fil13 {fill:#FFAB40;fill-rule:nonzero}
   ]]>
  </style>
   <clipPath id="id0">
    <path d="M1024 -0.0011811c565.539,0 1024,458.462 1024,1024 0,565.539 -458.462,1024 -1024,1024 -565.539,0 -1024,-458.462 -1024,-1024 0,-565.539 458.462,-1024 1024,-1024z"/>
   </clipPath>
 </defs>
 <g id="Layer_x0020_1">
  <metadata id="CorelCorpID_0Corel-Layer"/>
  <path class="fil0" d="M1024 -0.0011811c565.539,0 1024,458.462 1024,1024 0,565.539 -458.462,1024 -1024,1024 -565.539,0 -1024,-458.462 -1024,-1024 0,-565.539 458.462,-1024 1024,-1024z"/>
  <g style="clip-path:url(#id0)">
   <g id="_289349504">
    <g>
     <path id="_2909798641" class="fil1" d="M2669.4 2521.09l0 0zm-1135.88 -1135.88l0 0z"/>
     <polygon id="_290980272" class="fil1" points="613.295,1147.94 1749.18,2283.82 1615.43,2283.82 479.552,1147.94 "/>
     <polygon id="_290981712" class="fil1" points="1356.23,679.616 2492.11,1815.5 2493.01,1816.7 2493.78,1817.98 2494.44,1819.34 2494.96,1820.77 2495.35,1822.26 2495.58,1823.8 2495.66,1825.39 1359.78,689.508 1359.7,687.918 1359.46,686.373 1359.08,684.884 1358.56,683.455 1357.9,682.095 1357.12,680.813 "/>
     <polygon id="_290981760" class="fil1" points="1206.93,563.36 2342.81,1699.24 2343.71,1700.44 2344.49,1701.72 2345.14,1703.08 2345.67,1704.51 2346.05,1706 2346.29,1707.55 2346.37,1709.14 1210.48,573.253 1210.4,571.663 1210.17,570.119 1209.79,568.628 1209.26,567.2 1208.61,565.841 1207.83,564.558 "/>
     <polygon id="_290981424" class="fil1" points="1359.78,829.475 2495.66,1965.36 2495.66,1996.46 1359.78,860.575 "/>
     <polygon id="_290981136" class="fil1" points="1359.78,860.575 2495.66,1996.46 2495.66,2147.6 1359.78,1011.72 "/>
     <polygon id="_290981904" class="fil1" points="1382.69,1019.43 2518.57,2155.31 2519.52,2156.38 2520.31,2157.54 2520.93,2158.78 1385.05,1022.9 1384.43,1021.66 1383.64,1020.5 "/>
     <polygon id="_290982216" class="fil1" points="1385.05,1022.9 2520.93,2158.78 2521.55,2160.04 2522.17,2161.32 2522.79,2162.62 2523.41,2163.94 2524.04,2165.28 2524.66,2166.64 2525.29,2168.02 2525.91,2169.4 2526.54,2170.81 2527.16,2172.22 2527.79,2173.64 2528.42,2175.07 2529.04,2176.5 2529.67,2177.94 2530.3,2179.38 2530.92,2180.82 1395.04,1044.94 1394.41,1043.49 1393.79,1042.05 1393.16,1040.62 1392.54,1039.18 1391.91,1037.76 1391.28,1036.33 1390.66,1034.92 1390.03,1033.52 1389.41,1032.13 1388.78,1030.76 1388.16,1029.4 1387.53,1028.06 1386.91,1026.74 1386.29,1025.43 1385.67,1024.15 "/>
     <polygon id="_290981856" class="fil1" points="1395.04,1044.94 2530.92,2180.82 2532.33,2184.06 2533.73,2187.27 2535.13,2190.44 2536.52,2193.54 2537.89,2196.55 2539.25,2199.44 2540.6,2202.21 2541.92,2204.82 2543.23,2207.25 2544.51,2209.49 2545.76,2211.51 2546.99,2213.3 2548.18,2214.82 2549.35,2216.07 1413.47,1080.19 1412.3,1078.94 1411.11,1077.42 1409.88,1075.63 1408.63,1073.61 1407.34,1071.37 1406.04,1068.93 1404.72,1066.32 1403.37,1063.56 1402.01,1060.66 1400.63,1057.66 1399.25,1054.56 1397.85,1051.39 1396.45,1048.18 "/>
     <polygon id="_290982048" class="fil1" points="1519.92,1088.79 2655.8,2224.67 2656.91,2225.89 2658.02,2227.12 2659.12,2228.37 2660.22,2229.64 2661.33,2230.92 2662.43,2232.22 2663.53,2233.53 2664.62,2234.86 2665.72,2236.2 2666.81,2237.56 1530.93,1101.68 1529.84,1100.32 1528.74,1098.98 1527.64,1097.65 1526.55,1096.34 1525.45,1095.04 1524.34,1093.76 1523.24,1092.49 1522.14,1091.24 1521.03,1090.01 "/>
     <polygon id="_290981880" class="fil1" points="1530.99,1101.63 2666.87,2237.51 2667.51,2238.36 2668.07,2239.24 2668.58,2240.15 2669.01,2241.07 2669.38,2242.02 2669.68,2242.98 2669.92,2243.95 2670.09,2244.93 2670.2,2245.92 2670.25,2246.92 2670.23,2247.91 2670.15,2248.89 2670.01,2249.87 2669.8,2250.84 2669.53,2251.8 2669.2,2252.74 1533.32,1116.85 1533.65,1115.91 1533.92,1114.96 1534.12,1113.99 1534.27,1113.01 1534.35,1112.02 1534.37,1111.03 1534.32,1110.04 1534.21,1109.05 1534.04,1108.07 1533.8,1107.1 1533.5,1106.14 1533.13,1105.19 1532.69,1104.26 1532.19,1103.36 1531.63,1102.48 "/>
     <polygon id="_290982096" class="fil1" points="1533.32,1116.85 2669.2,2252.74 2668.77,2253.95 2668.33,2255.18 2667.87,2256.43 2667.4,2257.7 2666.92,2258.98 2666.43,2260.28 2665.92,2261.59 2665.41,2262.91 2664.88,2264.25 2664.35,2265.59 2663.82,2266.95 2663.28,2268.31 2662.73,2269.67 2662.18,2271.04 2661.63,2272.41 2661.08,2273.79 1525.2,1137.9 1525.75,1136.53 1526.3,1135.16 1526.85,1133.79 1527.39,1132.42 1527.94,1131.06 1528.47,1129.71 1529,1128.37 1529.53,1127.03 1530.04,1125.71 1530.55,1124.4 1531.04,1123.1 1531.52,1121.81 1531.99,1120.55 1532.45,1119.3 1532.89,1118.06 "/>
     <polygon id="_290981952" class="fil1" points="1525.2,1137.9 2661.08,2273.79 2660.41,2275.45 2659.74,2277.12 2659.07,2278.78 2658.41,2280.44 2657.76,2282.09 2657.11,2283.73 2656.48,2285.35 2655.85,2286.96 2655.25,2288.55 2654.65,2290.12 2654.08,2291.67 2653.52,2293.2 2652.99,2294.7 2652.48,2296.17 2651.99,2297.61 2651.53,2299.02 2651.1,2300.39 2650.7,2301.73 2650.32,2303.02 2649.99,2304.28 2649.69,2305.49 2649.42,2306.65 2649.2,2307.77 2649.01,2308.83 2648.87,2309.84 2648.77,2310.8 2648.72,2311.7 2648.71,2312.54 2648.76,2313.32 2648.85,2314.04 2649,2314.69 2649.2,2315.27 1513.32,1179.39 1513.12,1178.81 1512.97,1178.16 1512.87,1177.44 1512.83,1176.66 1512.84,1175.82 1512.89,1174.92 1512.99,1173.96 1513.13,1172.95 1513.31,1171.88 1513.54,1170.77 1513.8,1169.6 1514.11,1168.39 1514.44,1167.14 1514.81,1165.84 1515.22,1164.51 1515.65,1163.14 1516.11,1161.73 1516.6,1160.29 1517.11,1158.82 1517.64,1157.32 1518.2,1155.79 1518.77,1154.24 1519.37,1152.67 1519.97,1151.08 1520.6,1149.47 1521.23,1147.84 1521.88,1146.21 1522.53,1144.56 1523.19,1142.9 1523.86,1141.24 1524.53,1139.57 "/>
     <polygon id="_290982312" class="fil1" points="1513.32,1179.39 2649.2,2315.27 2649.82,2316.36 2650.77,2317.49 1514.88,1181.6 1513.94,1180.48 "/>
     <polygon id="_290982408" class="fil1" points="1577.74,1214.48 2713.62,2350.36 2715.12,2352.29 2716.3,2354.37 2717.12,2356.62 2717.52,2359.05 1581.64,1223.17 1581.24,1220.74 1580.42,1218.48 1579.24,1216.4 "/>
     <polygon id="_290982480" class="fil1" points="1581.64,1223.17 2717.52,2359.05 2717.67,2360.33 2717.84,2361.8 2718.03,2363.45 2718.24,2365.27 2718.45,2367.25 2718.67,2369.37 2718.88,2371.61 2719.09,2373.97 2719.28,2376.43 2719.46,2378.97 2719.61,2381.57 2719.73,2384.24 2719.82,2386.94 2719.87,2389.68 2719.88,2392.42 2719.83,2395.17 2719.74,2397.9 2719.58,2400.6 2719.35,2403.25 2719.06,2405.85 2718.68,2408.38 2718.23,2410.82 2717.69,2413.16 2717.06,2415.38 2716.33,2417.48 2715.5,2419.43 2714.56,2421.22 2713.5,2422.85 2712.33,2424.29 2711.03,2425.52 2709.61,2426.55 2708.05,2427.35 1572.17,1291.46 1573.73,1290.67 1575.15,1289.64 1576.45,1288.4 1577.62,1286.97 1578.67,1285.34 1579.61,1283.55 1580.45,1281.59 1581.18,1279.5 1581.81,1277.27 1582.35,1274.93 1582.8,1272.49 1583.17,1269.97 1583.47,1267.37 1583.7,1264.71 1583.85,1262.01 1583.95,1259.29 1584,1256.54 1583.99,1253.79 1583.94,1251.06 1583.85,1248.36 1583.73,1245.69 1583.57,1243.08 1583.4,1240.54 1583.21,1238.09 1583,1235.73 1582.78,1233.49 1582.57,1231.37 1582.35,1229.39 1582.15,1227.57 1581.96,1225.91 1581.79,1224.44 "/>
     <polygon id="_290982864" class="fil1" points="1572.17,1291.46 2708.05,2427.35 2706.8,2427.97 2705.52,2428.59 2704.22,2429.21 2702.89,2429.83 2701.55,2430.46 2700.19,2431.08 2698.82,2431.71 2697.43,2432.33 2696.03,2432.96 2694.62,2433.58 2693.2,2434.21 2691.77,2434.83 2690.33,2435.46 2688.9,2436.09 2687.46,2436.71 2686.02,2437.34 1550.14,1301.46 1551.58,1300.83 1553.02,1300.2 1554.45,1299.58 1555.89,1298.95 1557.32,1298.33 1558.74,1297.7 1560.15,1297.07 1561.55,1296.45 1562.94,1295.82 1564.31,1295.2 1565.67,1294.57 1567.01,1293.95 1568.33,1293.33 1569.64,1292.7 1570.91,1292.08 "/>
     <polygon id="_290982792" class="fil1" points="1550.14,1301.46 2686.02,2437.34 2682.77,2438.75 2679.56,2440.15 2676.39,2441.55 2673.29,2442.94 2670.29,2444.31 2667.39,2445.67 2664.63,2447.02 2662.02,2448.34 2659.58,2449.64 2657.34,2450.93 2655.32,2452.18 2653.54,2453.41 2652.01,2454.6 2650.77,2455.76 2649.82,2456.89 2649.2,2457.98 1513.32,1322.1 1513.94,1321.01 1514.89,1319.88 1516.13,1318.72 1517.66,1317.52 1519.44,1316.3 1521.46,1315.04 1523.7,1313.76 1526.14,1312.46 1528.75,1311.13 1531.51,1309.79 1534.4,1308.43 1537.41,1307.05 1540.51,1305.67 1543.68,1304.27 1546.89,1302.87 "/>
     <polygon id="_290983128" class="fil1" points="1513.32,1322.1 2649.2,2457.98 2649,2458.56 2648.85,2459.21 2648.76,2459.93 2648.71,2460.71 2648.72,2461.55 2648.77,2462.45 2648.87,2463.41 2649.01,2464.42 2649.2,2465.48 2649.42,2466.6 2649.69,2467.76 2649.99,2468.97 2650.33,2470.23 2650.7,2471.52 2651.1,2472.86 2651.53,2474.23 2651.99,2475.64 2652.48,2477.08 2652.99,2478.55 2653.52,2480.05 2654.08,2481.58 2654.65,2483.13 2655.25,2484.7 2655.85,2486.29 2656.48,2487.9 2657.11,2489.52 2657.76,2491.16 2658.41,2492.81 2659.07,2494.47 2659.74,2496.13 2660.41,2497.8 2661.08,2499.46 1525.2,1363.58 1524.53,1361.91 1523.86,1360.25 1523.19,1358.58 1522.53,1356.93 1521.88,1355.28 1521.23,1353.64 1520.6,1352.02 1519.97,1350.41 1519.37,1348.82 1518.77,1347.25 1518.2,1345.7 1517.64,1344.17 1517.11,1342.67 1516.6,1341.2 1516.11,1339.76 1515.65,1338.35 1515.22,1336.98 1514.81,1335.64 1514.44,1334.35 1514.11,1333.09 1513.81,1331.88 1513.54,1330.72 1513.31,1329.6 1513.13,1328.54 1512.99,1327.52 1512.89,1326.57 1512.84,1325.67 1512.83,1324.82 1512.87,1324.05 1512.97,1323.33 1513.12,1322.68 "/>
     <polygon id="_290982912" class="fil1" points="1525.2,1363.58 2661.08,2499.46 2661.65,2500.88 2662.22,2502.29 2662.78,2503.7 2663.34,2505.11 2663.9,2506.51 2664.45,2507.9 2665,2509.28 2665.53,2510.66 2666.06,2512.02 2666.58,2513.37 2667.09,2514.7 2667.58,2516.01 2668.06,2517.31 2668.53,2518.59 2668.98,2519.85 2669.41,2521.09 1533.53,1385.21 1533.1,1383.97 1532.65,1382.71 1532.18,1381.43 1531.7,1380.13 1531.21,1378.82 1530.7,1377.48 1530.18,1376.14 1529.65,1374.77 1529.12,1373.4 1528.57,1372.02 1528.02,1370.63 1527.46,1369.23 1526.9,1367.82 1526.33,1366.41 1525.77,1365 "/>
     <polygon id="_290983056" class="fil1" points="1533.53,1385.21 2669.41,2521.09 2669.74,2522.17 2669.98,2523.25 2670.15,2524.33 2670.24,2525.41 2670.25,2526.49 2670.19,2527.56 2670.05,2528.61 2669.84,2529.65 2669.56,2530.66 2669.22,2531.66 2668.8,2532.63 2668.33,2533.56 2667.79,2534.47 2667.19,2535.33 2666.53,2536.16 2665.81,2536.94 1529.93,1401.06 1530.64,1400.28 1531.31,1399.45 1531.91,1398.59 1532.45,1397.68 1532.92,1396.74 1533.34,1395.78 1533.68,1394.78 1533.96,1393.76 1534.17,1392.73 1534.31,1391.67 1534.37,1390.61 1534.36,1389.53 1534.27,1388.45 1534.1,1387.37 1533.86,1386.28 "/>
     <polygon id="_290983272" class="fil1" points="1529.93,1401.06 2665.81,2536.94 2664.85,2538.12 2663.8,2539.41 2662.67,2540.8 2661.44,2542.28 2660.14,2543.84 2658.77,2545.46 2657.33,2547.15 2655.83,2548.87 2654.26,2550.64 2652.65,2552.42 2650.99,2554.22 2649.28,2556.02 2647.54,2557.81 2645.76,2559.58 2643.96,2561.32 2642.13,2563.02 2640.29,2564.67 2638.44,2566.25 2636.58,2567.76 2634.71,2569.18 2632.85,2570.51 2631,2571.73 2629.17,2572.83 2627.35,2573.8 2625.55,2574.63 2623.79,2575.31 2622.06,2575.83 2620.36,2576.18 2618.72,2576.34 2617.12,2576.31 2615.57,2576.07 2614.09,2575.62 1478.21,1439.73 1479.69,1440.19 1481.23,1440.42 1482.83,1440.46 1484.48,1440.29 1486.17,1439.95 1487.91,1439.43 1489.67,1438.75 1491.47,1437.92 1493.28,1436.94 1495.12,1435.84 1496.97,1434.62 1498.83,1433.3 1500.69,1431.88 1502.56,1430.37 1504.41,1428.79 1506.25,1427.14 1508.08,1425.44 1509.88,1423.7 1511.66,1421.93 1513.4,1420.14 1515.1,1418.34 1516.77,1416.54 1518.38,1414.75 1519.95,1412.99 1521.45,1411.26 1522.89,1409.58 1524.26,1407.96 1525.56,1406.4 1526.79,1404.92 1527.92,1403.53 1528.97,1402.24 "/>
     <polygon id="_290983296" class="fil1" points="1478.21,1439.73 2614.09,2575.62 2612.88,2575.19 2611.65,2574.75 2610.4,2574.29 2609.13,2573.82 2607.85,2573.34 2606.55,2572.84 2605.24,2572.34 2603.91,2571.82 2602.58,2571.3 2601.23,2570.77 2599.88,2570.24 2598.52,2569.69 2597.16,2569.15 2595.79,2568.6 2594.42,2568.05 2593.05,2567.5 1457.16,1431.61 1458.54,1432.17 1459.91,1432.72 1461.28,1433.27 1462.64,1433.81 1464,1434.35 1465.35,1434.89 1466.7,1435.42 1468.03,1435.94 1469.36,1436.46 1470.67,1436.96 1471.97,1437.45 1473.25,1437.94 1474.52,1438.41 1475.76,1438.86 1477,1439.31 "/>
     <polygon id="_290983104" class="fil1" points="1457.16,1431.61 2593.05,2567.5 2591.38,2566.83 2589.71,2566.16 2588.05,2565.49 2586.39,2564.83 2584.74,2564.18 2583.11,2563.53 2581.48,2562.9 2579.87,2562.27 2578.28,2561.67 2576.71,2561.07 2575.16,2560.5 2573.63,2559.94 2572.13,2559.41 2570.66,2558.9 2569.22,2558.41 2567.81,2557.95 2566.44,2557.52 2565.11,2557.12 2563.81,2556.74 2562.55,2556.41 2561.35,2556.11 2560.18,2555.84 2559.06,2555.62 2558,2555.43 2556.99,2555.29 2556.03,2555.19 2555.13,2555.14 2554.29,2555.13 2553.51,2555.18 2552.79,2555.27 2552.14,2555.42 2551.56,2555.62 1415.68,1419.74 1416.26,1419.54 1416.91,1419.39 1417.63,1419.29 1418.41,1419.25 1419.25,1419.25 1420.15,1419.31 1421.11,1419.41 1422.12,1419.55 1423.18,1419.73 1424.3,1419.96 1425.46,1420.22 1426.67,1420.53 1427.93,1420.86 1429.22,1421.23 1430.56,1421.63 1431.93,1422.07 1433.34,1422.53 1434.78,1423.01 1436.25,1423.53 1437.75,1424.06 1439.28,1424.62 1440.83,1425.19 1442.4,1425.78 1443.99,1426.39 1445.6,1427.01 1447.22,1427.65 1448.86,1428.29 1450.51,1428.95 1452.17,1429.61 1453.83,1430.27 1455.5,1430.94 "/>
     <polygon id="_290982744" class="fil1" points="1415.68,1419.74 2551.56,2555.62 2550.47,2556.24 2549.35,2557.19 2548.18,2558.43 2546.99,2559.96 2545.76,2561.74 2544.51,2563.76 2543.23,2566 2541.92,2568.44 2540.6,2571.04 2539.25,2573.81 2537.89,2576.7 2536.52,2579.71 2535.13,2582.81 2533.73,2585.98 2532.33,2589.19 2530.92,2592.43 1395.04,1456.55 1396.45,1453.31 1397.85,1450.09 1399.25,1446.93 1400.63,1443.83 1402.01,1440.82 1403.37,1437.93 1404.72,1435.16 1406.04,1432.55 1407.34,1430.12 1408.63,1427.88 1409.88,1425.86 1411.11,1424.07 1412.3,1422.55 1413.47,1421.3 1414.59,1420.36 "/>
     <polygon id="_290983368" class="fil1" points="1395.04,1456.55 2530.92,2592.43 2530.08,2594.45 2529.21,2596.67 2528.3,2599.03 2527.34,2601.51 2526.32,2604.05 2525.22,2606.61 2524.04,2609.16 2522.76,2611.63 2521.37,2614 2519.87,2616.22 2518.24,2618.25 2516.47,2620.04 2514.55,2621.54 2512.47,2622.72 2510.22,2623.54 2507.78,2623.94 1371.9,1488.06 1374.33,1487.65 1376.59,1486.84 1378.67,1485.66 1380.59,1484.15 1382.36,1482.37 1383.99,1480.34 1385.49,1478.12 1386.88,1475.75 1388.15,1473.27 1389.34,1470.73 1390.43,1468.17 1391.46,1465.63 1392.42,1463.15 1393.33,1460.78 1394.2,1458.57 "/>
     <polygon id="_290982672" class="fil1" points="1105.82,1264.2 2241.7,2400.08 1764.73,2400.08 628.848,1264.2 "/>
     <polygon id="_290983608" class="fil1" points="1138.52,1301.46 2274.4,2437.34 2272.38,2436.5 2270.17,2435.63 2267.8,2434.72 2265.33,2433.76 2262.78,2432.73 2260.22,2431.64 2257.68,2430.45 2255.2,2429.18 2252.83,2427.79 2250.61,2426.29 2248.59,2424.66 1112.7,1288.77 1114.73,1290.4 1116.95,1291.91 1119.32,1293.29 1121.8,1294.57 1124.34,1295.75 1126.9,1296.85 1129.44,1297.88 1131.92,1298.84 1134.29,1299.75 1136.5,1300.62 "/>
     <polygon id="_290983632" class="fil1" points="1173.77,1319.88 2309.65,2455.76 2308.4,2454.6 2306.88,2453.41 2305.1,2452.18 2303.07,2450.93 2300.83,2449.64 2298.4,2448.34 2295.79,2447.02 2293.03,2445.67 2290.13,2444.31 2287.12,2442.93 2284.02,2441.55 2280.86,2440.15 2277.64,2438.75 2274.4,2437.34 1138.52,1301.46 1141.76,1302.87 1144.98,1304.27 1148.14,1305.67 1151.24,1307.05 1154.25,1308.43 1157.14,1309.79 1159.91,1311.13 1162.52,1312.46 1164.95,1313.76 1167.19,1315.04 1169.21,1316.3 1171,1317.52 1172.52,1318.72 "/>
     <path id="_290983704" class="fil1" d="M2345.74 2575.82l0 0zm-1135.88 -1135.88l0 0z"/>
     <polygon id="_290983992" class="fil1" points="1209.86,1439.95 2345.74,2575.83 2344.67,2576.16 2343.59,2576.4 2342.5,2576.57 2341.42,2576.66 2340.35,2576.67 2339.28,2576.61 2338.22,2576.47 2337.19,2576.26 2336.17,2575.98 2335.17,2575.64 2334.21,2575.22 2333.27,2574.75 2332.36,2574.21 2331.5,2573.61 2330.67,2572.94 2329.89,2572.23 1194.01,1436.34 1194.79,1437.06 1195.62,1437.72 1196.48,1438.32 1197.39,1438.86 1198.32,1439.34 1199.29,1439.75 1200.29,1440.1 1201.31,1440.38 1202.34,1440.59 1203.4,1440.72 1204.46,1440.79 1205.54,1440.77 1206.62,1440.69 1207.7,1440.52 1208.79,1440.28 "/>
     <polygon id="_290984040" class="fil1" points="1194.01,1436.34 2329.89,2572.23 2328.63,2571.2 2327.37,2570.16 2326.13,2569.13 2324.91,2568.09 2323.7,2567.05 2322.5,2566.02 2321.31,2564.97 2320.14,2563.93 2318.99,2562.89 2317.84,2561.85 2316.72,2560.8 2315.6,2559.76 2314.5,2558.71 1178.62,1422.83 1179.72,1423.87 1180.83,1424.92 1181.96,1425.96 1183.11,1427.01 1184.26,1428.05 1185.43,1429.09 1186.62,1430.13 1187.81,1431.17 1189.03,1432.21 1190.25,1433.25 1191.49,1434.28 1192.75,1435.31 "/>
     <polygon id="_290983512" class="fil1" points="1272.97,1419.74 2408.85,2555.62 2408.27,2555.42 2407.62,2555.27 2406.91,2555.18 2406.13,2555.13 2405.28,2555.14 2404.38,2555.19 2403.43,2555.29 2402.41,2555.43 2401.35,2555.62 2400.23,2555.84 2399.07,2556.11 2397.86,2556.41 2396.6,2556.74 2395.31,2557.12 2393.97,2557.52 2392.6,2557.95 2391.19,2558.41 2389.75,2558.9 2388.28,2559.41 2386.78,2559.94 2385.25,2560.5 2383.7,2561.07 2382.13,2561.67 2380.54,2562.27 2378.93,2562.9 2377.31,2563.53 2375.67,2564.18 2374.02,2564.83 2372.37,2565.49 2370.7,2566.16 2369.04,2566.83 2367.37,2567.5 1231.49,1431.62 1233.16,1430.94 1234.82,1430.27 1236.49,1429.61 1238.14,1428.95 1239.79,1428.29 1241.43,1427.65 1243.05,1427.01 1244.66,1426.39 1246.25,1425.78 1247.82,1425.19 1249.37,1424.62 1250.9,1424.06 1252.4,1423.53 1253.87,1423.01 1255.31,1422.53 1256.72,1422.07 1258.09,1421.63 1259.43,1421.23 1260.72,1420.86 1261.98,1420.53 1263.19,1420.22 1264.35,1419.96 1265.47,1419.73 1266.53,1419.55 1267.55,1419.41 1268.5,1419.31 1269.4,1419.25 1270.24,1419.25 1271.02,1419.29 1271.74,1419.39 1272.39,1419.54 "/>
     <polygon id="_290983536" class="fil1" points="1275.19,1421.3 2411.07,2557.19 2409.94,2556.24 2408.85,2555.62 1272.97,1419.74 1274.06,1420.36 "/>
     <polygon id="_290984112" class="fil1" points="1231.49,1431.62 2367.37,2567.5 2365.95,2568.07 2364.54,2568.63 2363.13,2569.2 2361.73,2569.76 2360.33,2570.32 2358.93,2570.87 2357.55,2571.42 2356.18,2571.95 2354.82,2572.48 2353.47,2573 2352.14,2573.51 2350.82,2574 2349.52,2574.48 2348.24,2574.95 2346.98,2575.4 2345.74,2575.83 1209.86,1439.95 1211.1,1439.51 1212.36,1439.06 1213.64,1438.6 1214.94,1438.12 1216.25,1437.62 1217.59,1437.12 1218.94,1436.6 1220.3,1436.07 1221.67,1435.53 1223.05,1434.99 1224.44,1434.44 1225.84,1433.88 1227.25,1433.32 1228.66,1432.75 1230.07,1432.18 "/>
     <polygon id="_290983416" class="fil1" points="628.848,1264.2 1764.73,2400.08 1763.14,2400 1761.59,2399.76 1760.1,2399.38 1758.68,2398.86 1757.32,2398.2 1756.03,2397.42 1754.84,2396.53 618.955,1260.65 620.152,1261.54 621.435,1262.32 622.795,1262.97 624.223,1263.5 625.713,1263.88 627.258,1264.12 "/>
     <polygon id="_290983440" class="fil1" points="1371.9,1488.06 2507.78,2623.94 2506.13,2624.13 2504.33,2624.33 2502.39,2624.54 2500.32,2624.76 2498.13,2624.97 2495.84,2625.18 2493.46,2625.39 2491,2625.57 2488.48,2625.75 2485.89,2625.9 2483.27,2626.02 2480.61,2626.11 2477.93,2626.17 2475.25,2626.18 2472.57,2626.15 2469.91,2626.07 2467.28,2625.94 2464.69,2625.75 2462.15,2625.5 2459.68,2625.18 2457.28,2624.79 2454.98,2624.32 2452.77,2623.77 2450.68,2623.14 2448.72,2622.41 2446.89,2621.6 2445.21,2620.68 2443.69,2619.66 2442.35,2618.54 1306.47,1482.66 1307.81,1483.78 1309.33,1484.8 1311.01,1485.71 1312.84,1486.53 1314.8,1487.25 1316.89,1487.89 1319.1,1488.44 1321.4,1488.9 1323.8,1489.29 1326.27,1489.61 1328.81,1489.87 1331.4,1490.06 1334.03,1490.19 1336.69,1490.27 1339.37,1490.3 1342.05,1490.28 1344.73,1490.23 1347.39,1490.14 1350.01,1490.01 1352.59,1489.86 1355.12,1489.69 1357.58,1489.5 1359.96,1489.3 1362.25,1489.09 1364.44,1488.87 1366.5,1488.66 1368.45,1488.45 1370.25,1488.24 "/>
     <polygon id="_290984616" class="fil1" points="479.552,1147.94 1615.43,2283.82 1613.84,2283.74 1612.3,2283.51 1610.81,2283.12 1609.38,2282.6 1608.02,2281.95 1606.74,2281.17 1605.54,2280.27 469.659,1144.39 470.856,1145.29 472.139,1146.06 473.498,1146.72 474.926,1147.24 476.417,1147.62 477.962,1147.86 "/>
     <polygon id="_290984856" class="fil1" points="1210.48,573.253 2346.37,1709.14 2346.37,1809.84 1210.48,673.956 "/>
     <polygon id="_290984880" class="fil1" points="1359.78,689.508 2495.66,1825.39 2495.66,1965.36 1359.78,829.475 "/>
    </g>
    <path id="_289349384" class="fil1" d="M1533.52 1385.21l0 0zm-323.66 54.7276l0 0zm0.624804 -765.981l133.745 0c8.5878,0 15.5516,6.9626 15.5516,15.5516l0 139.967 0 31.1008 0 151.146c12.0106,1.16221 22.4185,4.33465 25.2662,11.178 3.30355,6.62835 6.65788,14.3528 9.99213,22.0358 7.52245,17.3268 14.9351,34.3996 20.6433,36.8138 5.82756,2.46496 23.6788,-4.71496 41.4839,-11.876 10.4787,-4.21536 27.4547,-14.6067 37.474,-4.73032 6.79371,5.49804 13.0051,11.0622 18.6083,16.6654 5.94804,5.94685 11.8536,12.5823 17.6835,19.8709l0.0602363 -0.0484252c3.55985,4.44922 4.25197,10.2685 2.32677,15.2232 -2.2311,6.40276 -5.17559,13.7244 -8.12245,21.0496 -7.16103,17.804 -14.341,35.6551 -11.876,41.4839 2.41418,5.70827 19.487,13.1209 36.815,20.6433 10.1622,4.4126 30.5315,9.64607 31.5036,23.1402 1.43032,12.476 7.89686,61.0654 -9.4689,68.2926 -6.62717,3.30473 -14.3528,6.65788 -22.0347,9.99331 -17.328,7.52363 -34.4008,14.9351 -36.8138,20.6421 -2.46614,5.82874 4.71496,23.6799 11.876,41.4839 3.03544,7.54725 6.06851,15.0898 8.3315,21.6236 1.97126,5.72363 0.376772,11.8134 -3.60236,15.8516 -9.67087,11.9504 -36.2221,44.7083 -51.7205,38.6752 -6.4004,-2.22992 -13.7185,-5.17323 -21.0414,-8.1189 -17.804,-7.15985 -35.6551,-14.3398 -41.4827,-11.8748 -5.70827,2.41299 -13.1209,19.4858 -20.6433,36.8126 -4.41142,10.1634 -9.64489,30.5327 -23.1402,31.5047 -16.748,1.92047 -61.4705,6.92481 -68.2914,-9.46772 -3.30355,-6.62835 -6.65788,-14.3528 -9.9945,-22.037 -7.52127,-17.3268 -14.9351,-34.3996 -20.6421,-36.8126 -5.82874,-2.46496 -23.6799,4.71496 -41.4827,11.876 -7.54725,3.03544 -15.0898,6.06851 -21.6248,8.3315 -5.72363,1.97126 -11.8134,0.376772 -15.8504,-3.60236 -6.79371,-5.49685 -13.0063,-11.0622 -18.6095,-16.6654 -7.82835,-7.82953 -25.0595,-22.2166 -20.0693,-35.0504 2.2311,-6.40394 5.17678,-13.7232 8.12245,-21.0484 7.16103,-17.8028 14.3398,-35.6528 11.876,-41.4815 -2.41418,-5.70709 -19.487,-13.1197 -36.815,-20.6421 -10.1622,-4.41142 -30.5315,-9.64607 -31.5036,-23.1402 -0.487796,-4.24607 -0.875198,-8.72599 -1.15394,-13.4457 -0.0129921,-0.225591 -0.0259843,-0.45 -0.0389764,-0.673229l-476.973 0c-8.58898,0 -15.5528,-6.96378 -15.5528,-15.5528l0 -100.703 -133.743 0c-8.58898,0 -15.5528,-6.96378 -15.5528,-15.5516l0 -388.068 0 -31.1032 0 -139.965c0,-8.58898 6.96378,-15.5528 15.5528,-15.5528l715.38 0c8.58898,0 15.5528,6.96378 15.5528,15.5528l0 100.703z"/>
   </g>
  </g>
  <path class="fil2" d="M1024 -0.0011811c565.539,0 1024,458.462 1024,1024 0,565.539 -458.462,1024 -1024,1024 -565.539,0 -1024,-458.462 -1024,-1024 0,-565.539 458.462,-1024 1024,-1024z"/>
  <path class="fil3" d="M1210.48 713.22l0 419.17c0,8.58898 -6.96378,15.5516 -15.5528,15.5516l-715.38 0c-8.58898,0 -15.5528,-6.9626 -15.5528,-15.5516l0 -419.17 746.486 0z"/>
  <polygon class="fil4" points="1210.48,713.22 1210.48,744.322 463.999,744.322 463.999,713.22 "/>
  <path class="fil5" d="M479.552 557.7l715.38 0c8.58898,0 15.5528,6.96378 15.5528,15.5528l0 139.965 -746.486 0 0 -139.965c0,-8.58898 6.96378,-15.5528 15.5528,-15.5528z"/>
  <polygon class="fil6" points="1086.14,603.563 1086.14,665.769 1148.35,665.769 1148.35,603.563 "/>
  <polygon class="fil7" points="868.269,665.769 930.476,665.769 930.476,603.563 868.269,603.563 "/>
  <polygon class="fil8" points="977.048,603.563 977.048,665.769 1039.25,665.769 1039.25,603.563 "/>
  <path class="fil9" d="M1359.78 829.475l0 419.17c0,8.58898 -6.96378,15.5528 -15.5528,15.5528l-715.38 0c-8.58898,0 -15.5516,-6.96378 -15.5516,-15.5528l0 -419.17 746.484 0z"/>
  <polygon class="fil10" points="1359.78,829.475 1359.78,860.577 613.296,860.577 613.296,829.475 "/>
  <path class="fil11" d="M628.848 673.956l715.38 0c8.58898,0 15.5528,6.9626 15.5528,15.5516l0 139.965 -746.484 0 0 -139.965c0,-8.58898 6.9626,-15.5516 15.5516,-15.5516z"/>
  <polygon class="fil12" points="1235.44,719.817 1235.44,782.024 1297.65,782.024 1297.65,719.817 "/>
  <polygon class="fil13" points="1017.57,782.024 1079.77,782.024 1079.77,719.817 1017.57,719.817 "/>
  <polygon class="fil14" points="1126.34,719.817 1126.34,782.024 1188.55,782.024 1188.55,719.817 "/>
  <path class="fil15" d="M824.096 1137.99c0,2.04567 1.65945,3.70512 3.70512,3.70512 2.04567,0 3.70512,-1.65945 3.70512,-3.70512l0 -23.6953c0,-2.04685 -1.65945,-3.70512 -3.70512,-3.70512l-94.7824 0c-2.04567,0 -3.70512,1.65827 -3.70512,3.70512l0 23.6953c0,2.04567 1.65945,3.70512 3.70512,3.70512 2.04567,0 3.70512,-1.65945 3.70512,-3.70512l0 -19.9902 87.3721 0 0 19.9902z"/>
  <path class="fil15" d="M784.114 1086.21c0,-2.04685 -1.65827,-3.70512 -3.70394,-3.70512 -2.04685,0 -3.70512,1.65827 -3.70512,3.70512l0 28.0819c0,2.04567 1.65827,3.70512 3.70512,3.70512 2.04567,0 3.70394,-1.65945 3.70394,-3.70512l0 -28.0819z"/>
  <path class="fil15" d="M1029.46 1137.99c0,2.04567 1.65827,3.70512 3.70512,3.70512 2.04567,0 3.70512,-1.65945 3.70512,-3.70512l0 -23.6953c0,-2.04685 -1.65945,-3.70512 -3.70512,-3.70512l-94.7824 0c-2.04685,0 -3.70512,1.65827 -3.70512,3.70512l0 23.6953c0,2.04567 1.65827,3.70512 3.70512,3.70512 2.04567,0 3.70512,-1.65945 3.70512,-3.70512l0 -19.9902 87.3721 0 0 19.9902z"/>
  <path class="fil15" d="M989.476 1086.21c0,-2.04685 -1.65945,-3.70512 -3.70512,-3.70512 -2.04567,0 -3.70512,1.65827 -3.70512,3.70512l0 28.0819c0,2.04567 1.65945,3.70512 3.70512,3.70512 2.04567,0 3.70512,-1.65945 3.70512,-3.70512l0 -28.0819z"/>
  <path class="fil15" d="M981.871 1038.08c0,2.04567 1.65827,3.70512 3.70394,3.70512 2.04685,0 3.70512,-1.65945 3.70512,-3.70512l0 -30.124c0,-2.04567 -1.65827,-3.70512 -3.70512,-3.70512l-204.97 0c-2.04567,0 -3.70512,1.65945 -3.70512,3.70512l0 30.124c0,2.04567 1.65945,3.70512 3.70512,3.70512 2.04685,0 3.70512,-1.65945 3.70512,-3.70512l0 -26.4189 197.561 0 0 26.4189z"/>
  <path class="fil15" d="M886.796 979.204c0,-2.04567 -1.65945,-3.70512 -3.70512,-3.70512 -2.04685,0 -3.70512,1.65945 -3.70512,3.70512l0 53.7579c0,2.04567 1.65827,3.70394 3.70512,3.70394 2.04567,0 3.70512,-1.65827 3.70512,-3.70394l0 -53.7579z"/>
  <path class="fil16" d="M837.259 907.632l91.6619 0c4.09252,0 7.41024,3.31772 7.41024,7.40906l0 64.1634c0,4.09252 -3.31772,7.41024 -7.41024,7.41024l-91.6619 0c-4.09134,0 -7.40906,-3.31772 -7.40906,-7.41024l0 -64.1634c0,-4.09134 3.31772,-7.40906 7.40906,-7.40906z"/>
  <path class="fil17" d="M852.087 1030.7l62.0079 0c4.09252,0 7.41024,3.31772 7.41024,7.41024l0 43.4055c0,4.09134 -3.31772,7.40906 -7.41024,7.40906l-62.0079 0c-4.09252,0 -7.41024,-3.31772 -7.41024,-7.40906l0 -43.4055c0,-4.09252 3.31772,-7.41024 7.41024,-7.41024z"/>
  <path class="fil18" d="M749.406 1030.7l62.0067 0c4.09252,0 7.41024,3.31772 7.41024,7.41024l0 43.4055c0,4.09134 -3.31772,7.40906 -7.41024,7.40906l-62.0067 0c-4.09252,0 -7.41024,-3.31772 -7.41024,-7.40906l0 -43.4055c0,-4.09252 3.31772,-7.41024 7.41024,-7.41024z"/>
  <path class="fil19" d="M954.767 1030.7l62.0079 0c4.09252,0 7.41024,3.31772 7.41024,7.41024l0 43.4055c0,4.09134 -3.31772,7.40906 -7.41024,7.40906l-62.0079 0c-4.09134,0 -7.40906,-3.31772 -7.40906,-7.40906l0 -43.4055c0,-4.09252 3.31772,-7.41024 7.40906,-7.41024z"/>
  <path class="fil20" d="M799.386 1131.5l56.7485 0c4.09134,0 7.40906,3.31772 7.40906,7.40906l0 39.724c0,4.09134 -3.31772,7.40906 -7.40906,7.40906l-56.7485 0c-4.09252,0 -7.41024,-3.31772 -7.41024,-7.40906l0 -39.724c0,-4.09134 3.31772,-7.40906 7.41024,-7.40906z"/>
  <path class="fil21" d="M704.685 1131.5l56.7485 0c4.09134,0 7.40906,3.31772 7.40906,7.40906l0 39.724c0,4.09134 -3.31772,7.40906 -7.40906,7.40906l-56.7485 0c-4.09134,0 -7.40906,-3.31772 -7.40906,-7.40906l0 -39.724c0,-4.09134 3.31772,-7.40906 7.40906,-7.40906z"/>
  <path class="fil22" d="M1004.75 1131.5l56.7473 0c4.09252,0 7.41024,3.31772 7.41024,7.40906l0 39.724c0,4.09134 -3.31772,7.40906 -7.41024,7.40906l-56.7473 0c-4.09252,0 -7.41024,-3.31772 -7.41024,-7.40906l0 -39.724c0,-4.09134 3.31772,-7.40906 7.41024,-7.40906z"/>
  <path class="fil23" d="M910.047 1131.5l56.7485 0c4.09134,0 7.40906,3.31772 7.40906,7.40906l0 39.724c0,4.09134 -3.31772,7.40906 -7.40906,7.40906l-56.7485 0c-4.09252,0 -7.41024,-3.31772 -7.41024,-7.40906l0 -39.724c0,-4.09134 3.31772,-7.40906 7.41024,-7.40906z"/>
  <path class="fil24" d="M1385.05 1022.9c3.30355,6.62835 6.65906,14.3528 9.99331,22.0358 7.52245,17.3268 14.9351,34.3996 20.6421,36.8138 5.82874,2.46496 23.6811,-4.71496 41.4851,-11.876 10.4787,-4.21536 27.4536,-14.6067 37.474,-4.73032 6.79371,5.49804 13.0051,11.0622 18.6083,16.6642 5.94804,5.94922 11.8536,12.5835 17.6835,19.8709l0.0602363 -0.0472441c3.55985,4.4504 4.25197,10.2685 2.32677,15.2244 -2.2311,6.40158 -5.17559,13.7232 -8.12245,21.0484 -7.16103,17.804 -14.341,35.6563 -11.876,41.4851 2.41418,5.70709 19.487,13.1197 36.8138,20.6421 10.1634,4.4126 30.5327,9.64607 31.5047,23.1402 1.43032,12.4748 7.89686,61.0654 -9.46772,68.2926 -6.62835,3.30355 -14.3539,6.65788 -22.037,9.99331 -17.3268,7.52245 -34.3996,14.9351 -36.8126,20.6421 -2.46614,5.82874 4.71496,23.6799 11.876,41.4839 3.03544,7.54725 6.06969,15.0898 8.32205,21.6272l0.00944883 -0.00354331c1.97126,5.72363 0.377953,11.8134 -3.60236,15.8516 -9.67087,11.9504 -36.2221,44.7083 -51.7205,38.6752 -6.4004,-2.22992 -13.7185,-5.17441 -21.0414,-8.1189 -17.8028,-7.15985 -35.6551,-14.341 -41.4839,-11.876 -5.70709,2.41418 -13.1197,19.487 -20.6421,36.8138 -4.41142,10.1634 -9.64489,30.5327 -23.1402,31.5047 -16.748,1.92047 -61.4705,6.92481 -68.2914,-9.46772 -3.30355,-6.62835 -6.65788,-14.3528 -9.9945,-22.037 -7.52245,-17.3268 -14.9339,-34.3996 -20.6421,-36.8138 -5.82874,-2.46496 -23.6799,4.71615 -41.4827,11.8772 -7.54725,3.03544 -15.0898,6.06851 -21.6284,8.32205l0.00354331 0.00944883c-5.72363,1.97126 -11.8134,0.376772 -15.8504,-3.60236 -6.79371,-5.49804 -13.0063,-11.0622 -18.6095,-16.6654 -7.82953,-7.82953 -25.0583,-22.2166 -20.0693,-35.0504 2.2311,-6.40394 5.17678,-13.7232 8.12245,-21.0484 7.16103,-17.8028 14.3398,-35.6528 11.876,-41.4803 -2.41418,-5.70827 -19.487,-13.1209 -36.815,-20.6433 -10.1634,-4.41142 -30.5327,-9.64607 -31.5036,-23.1402 -0.487796,-4.24725 -0.875198,-8.72599 -1.15394,-13.4457 -0.298819,-5.04685 -0.452363,-9.76536 -0.452363,-14.1272 0,-4.36063 0.153543,-9.07678 0.452363,-14.1225 0.295276,-4.98544 0.709843,-9.70394 1.23662,-14.165l-0.0141732 -0.0011811c0.676772,-5.73426 4.42205,-10.3595 9.39804,-12.4299 6.62835,-3.30473 14.3539,-6.65906 22.0382,-9.9945 17.3268,-7.52245 34.3996,-14.9351 36.8126,-20.6421 2.46496,-5.82874 -4.71496,-23.6799 -11.876,-41.4827 -3.03662,-7.54843 -6.06969,-15.091 -8.32323,-21.6284l-0.00944883 0.00354331c-1.97126,-5.72363 -0.376772,-11.8134 3.60236,-15.8504 5.49804,-6.79371 11.0622,-13.0063 16.6654,-18.6095 7.82953,-7.82953 22.2177,-25.0595 35.0504,-20.0693 6.40394,2.2311 13.7232,5.17559 21.0496,8.12245 17.8016,7.16103 35.6516,14.3398 41.4803,11.8748 5.70709,-2.41299 13.1197,-19.487 20.6421,-36.8138 8.62678,-19.8721 8.59843,-28.2154 25.128,-31.3725 14.9847,-2.85945 59.8808,-6.1004 66.3048,9.33662z"/>
  <path class="fil25" d="M1407.76 1187.68c-16.1362,-16.1374 -38.4319,-26.1177 -63.0591,-26.1177 -24.6272,0 -46.9217,9.98032 -63.0591,26.1177 -16.1374,16.1374 -26.1177,38.4319 -26.1177,63.0591 0,24.6272 9.98032,46.9229 26.1177,63.0591 16.1374,16.1374 38.4319,26.1189 63.0591,26.1189 24.6272,0 46.9229,-9.9815 63.0591,-26.1189 16.1374,-16.1362 26.1189,-38.4319 26.1189,-63.0591 0,-24.6272 -9.9815,-46.9217 -26.1189,-63.0591z"/>
  <path class="fil26" d="M1344.7 1130.74c33.137,0 63.1382,13.4327 84.8564,35.1508 21.7169,21.7169 35.1496,51.7193 35.1496,84.8552 0,33.137 -13.4327,63.1382 -35.1496,84.8564 -21.7181,21.7169 -51.7193,35.1496 -84.8564,35.1496 -33.1359,0 -63.1382,-13.4327 -84.8552,-35.1496 -21.7181,-21.7181 -35.1508,-51.7193 -35.1508,-84.8564 0,-33.1359 13.4327,-63.1382 35.1508,-84.8552 21.7169,-21.7181 51.7193,-35.1508 84.8552,-35.1508z"/>
  <path class="fil25" d="M1363.91 1231.54c-4.91457,-4.91457 -11.7059,-7.95355 -19.2071,-7.95355 -7.50119,0 -14.2925,3.03898 -19.2059,7.95355 -4.91457,4.91339 -7.95355,11.7059 -7.95355,19.2059 0,7.50237 3.03898,14.2925 7.95355,19.2059 4.91339,4.91457 11.7047,7.95473 19.2059,7.95473 7.50119,0 14.2925,-3.04016 19.2071,-7.95473 4.91339,-4.91339 7.95355,-11.7036 7.95355,-19.2059 0,-7.50001 -3.04016,-14.2925 -7.95355,-19.2059z"/>
  <path class="fil27" d="M1344.7 1192.75c16.0099,0 30.5091,6.49134 41.0032,16.9854 10.4941,10.4941 16.9854,24.9933 16.9854,41.0032 0,16.011 -6.49134,30.5091 -16.9854,41.0032 -10.4941,10.4941 -24.9933,16.9854 -41.0032,16.9854 -16.011,0 -30.5091,-6.49134 -41.0032,-16.9854 -10.4941,-10.4941 -16.9854,-24.9921 -16.9854,-41.0032 0,-16.0099 6.49134,-30.5091 16.9854,-41.0032 10.4941,-10.4941 24.9921,-16.9854 41.0032,-16.9854z"/>
 </g>
</svg>
