<?xml version="1.0" encoding="utf-8"?>
<!-- Generator: Adobe Illustrator 21.0.0, SVG Export Plug-In . SVG Version: 6.00 Build 0)  -->
<svg version="1.1" id="Layer_1" xmlns="http://www.w3.org/2000/svg" xmlns:xlink="http://www.w3.org/1999/xlink" x="0px" y="0px"
	 viewBox="0 0 512 512" style="enable-background:new 0 0 512 512;" xml:space="preserve">
<style type="text/css">
	.st0{fill:#71CCE0;}
	.st1{fill:#DFDFDF;}
	.st2{fill:#4A555F;}
	.st3{fill:#FFD452;}
	.st4{fill:#F58E6F;}
	.st5{fill:#FFFFFF;}
	.st6{fill:none;}
</style>
<g>
	<g>
		<g>
			<path class="st2" d="M330.837,317.585l-6.405,1.181c2.562,13.895,1.897,29.948,1.254,45.473
				c-0.241,5.809-0.489,11.787-0.553,17.522c-8.031,0.91-16.372-1.278-22.786-6.061c-4.317-3.219-9.637-9.017-10.547-18.395
				c-0.002-7.213-0.087-22.567-0.087-22.567l-6.511,0.036c0,0.001,0.087,15.55,0.087,22.685l0.013,0.298
				c0.85,9.245,5.52,17.472,13.152,23.164c6.583,4.908,14.85,7.549,23.12,7.549c2.495,0,4.99-0.24,7.438-0.731l2.616-0.525v-2.667
				c0-6.431,0.273-13.041,0.564-20.038C332.851,348.624,333.531,332.199,330.837,317.585z"/>
		</g>
	</g>
	<g>
		<g>
			<path class="st2" d="M158.398,416.228c-1.831-18.68,2.484-34.937,6.967-48.386c6.231-15.123,13.033-29.623,19.61-43.647
				l3.771-8.05l-5.901-2.755l-3.765,8.041c-6.625,14.126-13.476,28.732-19.777,44.036l-0.079,0.209
				c-4.724,14.157-9.286,31.329-7.291,51.339l0.038,0.278c3.557,18.944,11.66,41.521,19.496,63.355
				c4.053,11.291,7.881,21.955,10.784,31.355l6.223-1.922c-2.948-9.539-6.802-20.271-10.877-31.631
				C169.865,456.906,161.873,434.634,158.398,416.228z"/>
		</g>
	</g>
	<g>
		<g>
			<path class="st3" d="M296.322,90.133c-8.823,9.831-21.633,16.012-35.898,16.012c-14.512,0-27.523-6.405-36.391-16.572
				c-52.896,15.251-91.593,64.026-91.593,121.849c0,25.236,7.737,50.241,21.87,71.142c3.985,5.893,8.494,11.349,13.356,16.532
				v-19.192c0-38.81,31.464-70.274,70.274-70.274h22.977c-23.738,0-42.975-19.237-42.975-42.997
				c0-23.738,19.236-42.975,42.975-42.975s42.998,19.237,42.998,42.975c0,23.738-19.259,42.997-42.998,42.997h26.896
				c38.81,0,70.274,31.464,70.274,70.274c0,0,0,10.902,0,10.906c4.162-5.106,4.251-5.586,5.173-6.907
				c1.879-2.692,3.651-5.459,5.312-8.29c3.393-5.782,6.323-11.834,8.762-18.079c5.731-14.67,8.701-30.363,8.701-46.113
				C386.035,154.294,348.255,105.989,296.322,90.133z"/>
		</g>
	</g>
	<g>
		<g>
			<path class="st1" d="M260.851,297.274c-9.919,0-17.971,8.074-17.971,17.992v123.866h-17.863V333.129
				c-4.037-1.042-7.488-1.953-8.226-2.213c-7.64-2.713-14.998-6.142-21.965-10.267c-0.347-0.195-0.673-0.412-1.021-0.629
				l-22.138,47.879c-5.252,11.33-7.9,23.506-7.9,35.726c0,8.768,1.368,17.558,4.102,26.067l26.089,81.348h80.262
				c3.039-23.419,4.601-47.055,4.601-70.626V315.266C278.821,305.347,270.769,297.274,260.851,297.274z"/>
		</g>
	</g>
	<g>
		<g>
			<path class="st1" d="M319.104,323.188c-3.603,1.953-7.314,3.711-11.112,5.296c-3.69,1.541-7.445,2.909-11.308,4.081v15.757
				c0,14.021,10.005,25.741,23.354,27.5v-40.869C320.038,330.98,319.734,327.03,319.104,323.188z"/>
		</g>
	</g>
	<g>
		<g>
			<polygon class="st2" points="87.209,61.322 87.209,132.207 93.72,132.207 93.72,67.833 152.608,67.833 152.608,61.322 			"/>
		</g>
	</g>
	<g>
		<g>
			<polygon class="st2" points="359.392,61.322 359.392,67.833 418.28,67.833 418.28,132.207 424.791,132.207 424.791,61.322 			"/>
		</g>
	</g>
	<g>
		<g>
			<polygon class="st2" points="418.28,291.769 418.28,356.143 387.114,356.143 387.114,362.654 424.791,362.654 424.791,291.769 
							"/>
		</g>
	</g>
	<g>
		<g>
			<polygon class="st2" points="93.72,356.143 93.72,291.769 87.209,291.769 87.209,362.654 124.853,362.654 124.853,356.143 			"/>
		</g>
	</g>
	<g>
		<g>
			<path class="st1" d="M287.807,220.831h-49.876c-32.622,0-59.057,26.436-59.057,59.079v29.561
				c5.014,4.124,10.375,7.879,15.953,11.177c6.967,4.124,14.325,7.554,21.965,10.267c1.259,0.434,10.505,2.843,17.016,4.449
				c-0.195-7.293-0.348-14.629,0.195-21.835c2.496-33.142,51.96-32.166,53.74,0.846c0.369,6.772,0.586,13.565,0.716,20.38
				c1.779-0.412,3.559-0.846,5.317-1.324l1.085-0.304c4.515-1.324,8.855-2.865,13.131-4.645
				c14.39-6.012,27.608-14.672,38.894-25.459V279.91C346.886,247.267,320.45,220.831,287.807,220.831z"/>
		</g>
	</g>
	<g>
		<g>
			<g>
				<path class="st2" d="M293.618,133.94c-8.734-8.733-20.345-13.543-32.698-13.542c-25.498,0.001-46.242,20.746-46.242,46.245
					c0,12.352,4.809,23.965,13.544,32.697c8.735,8.734,20.343,13.542,32.694,13.542h0.004c25.499-0.001,46.243-20.746,46.243-46.244
					C307.162,154.286,302.353,142.674,293.618,133.94z M260.919,206.371h-0.004c-10.61,0-20.587-4.132-28.09-11.634
					c-7.503-7.504-11.636-17.481-11.636-28.094c0-21.908,17.823-39.732,39.731-39.733c10.613,0,20.589,4.132,28.095,11.635
					c7.503,7.503,11.636,17.48,11.636,28.093C300.65,188.545,282.827,206.37,260.919,206.371z"/>
			</g>
		</g>
	</g>
	<g>
		<g>
			<path class="st3" d="M283.398,144.161c-6.003-6.004-13.986-9.31-22.477-9.309c-17.53,0.001-31.791,14.262-31.791,31.791
				c0,8.491,3.307,16.474,9.311,22.477c6.003,6.004,13.987,9.31,22.478,9.309c17.53-0.001,31.79-14.263,31.79-31.792
				C292.709,158.147,289.402,150.164,283.398,144.161z"/>
		</g>
	</g>
	<g>
		<g>
			<polygon class="st4" points="247.518,209.627 255.838,229.271 266.912,229.271 275.081,209.627 			"/>
		</g>
	</g>
	<g>
		<g>
			<path class="st4" d="M266.928,229.274h-11.091l-12.523,65.699c9.875-7.922,25.351-7.727,35.183,0.304
				C274.155,269.839,266.928,229.274,266.928,229.274z"/>
		</g>
	</g>
	<g>
		<g>
			<g>
				<path class="st2" d="M242.603,206.371l11.081,26.156h15.4l10.875-26.156H242.603z M264.739,226.016h-6.744l-5.562-13.134h17.769
					L264.739,226.016z"/>
			</g>
		</g>
	</g>
	<g>
		<g>
			<g>
				<path class="st2" d="M281.706,294.729c-4.292-25.157-11.501-65.62-11.573-66.026l-0.477-2.684h-16.514l-14.682,77.021
					l6.888-5.527c8.697-6.972,22.353-6.851,31.087,0.285l6.732,5.498L281.706,294.729z M260.631,285.907
					c-4.39,0-8.771,0.86-12.768,2.584l10.667-55.962h5.67c1.507,8.481,6.274,35.354,9.875,56.228
					C269.873,286.858,265.25,285.907,260.631,285.907z"/>
			</g>
		</g>
	</g>
	<g>
		<g>
			<path class="st2" d="M287.812,206.375h-49.873c-40.545,0-73.53,32.986-73.53,73.53v17.803h6.511v-17.803
				c0-36.954,30.064-67.018,67.019-67.018h49.873c36.955,0,67.018,30.064,67.018,67.018v9.496h6.511v-9.496
				C361.342,239.36,328.357,206.375,287.812,206.375z"/>
		</g>
	</g>
	<g>
		<g>
			<rect x="215.008" y="297.621" class="st2" width="6.511" height="33.871"/>
		</g>
	</g>
	<g>
		<g>
			<rect x="304.779" y="297.621" class="st2" width="6.512" height="30.863"/>
		</g>
	</g>
	<g>
		<g>
			<g>
				<path class="st2" d="M306.844,35.434l-1.865-3.834l-44.739,39.146L241.96,51.328l4.015-3.778l14.633,15.546l41.228-36.062
					l-2.062-2.444c-9.794-11.608-24.135-18.265-39.35-18.265c-28.417,0-51.537,23.12-51.537,51.538s23.12,51.538,51.537,51.538
					c28.43,0,51.561-23.12,51.561-51.538C311.984,50,310.254,42.455,306.844,35.434z M260.423,102.89
					c-24.826,0-45.025-20.199-45.025-45.027s20.199-45.027,45.025-45.027c12.217,0,23.792,4.914,32.226,13.583l-31.605,27.643
					l-14.79-15.716l-13.498,12.704l27.046,28.731l42.887-37.526c1.849,4.97,2.783,10.203,2.783,15.607
					C305.473,82.69,285.263,102.89,260.423,102.89z"/>
			</g>
		</g>
	</g>
	<g>
		<g>
			<g>
				<path class="st4" d="M261.558,43.522l19.396-16.966c-6.024-3.958-13.135-6.123-20.53-6.123
					c-17.497,0-32.228,12.068-36.308,28.317l22.463-21.142L261.558,43.522z M297.855,56.579l-38.563,33.741L223.42,52.214
					c-0.282,1.843-0.426,3.728-0.426,5.649c0,20.639,16.791,37.43,37.429,37.43c20.651,0,37.453-16.791,37.453-37.43
					C297.876,57.434,297.87,57.006,297.855,56.579z"/>
			</g>
		</g>
	</g>
	<g>
		<g>
			<g>
				<path class="st2" d="M322.88,0l-61.833,54.069l-14.784-15.723l-13.5,12.697l27.029,28.739l75.287-65.83L322.88,0z
					 M241.966,51.325l4.012-3.774l14.627,15.553l61.66-53.916l3.627,4.147l-65.66,57.411L241.966,51.325z"/>
			</g>
		</g>
	</g>
	<g>
		<g>
			<g>
				<path class="st2" d="M297.266,87.014l-1.988-0.607l-1.388,1.548c-8.506,9.491-20.706,14.935-33.472,14.935
					c-13.008,0-25.373-5.636-33.921-15.463l-1.363-1.567l-1.997,0.575c-55.314,15.956-93.945,67.348-93.945,124.976
					c0,28.691,9.716,57.026,27.359,79.781c9.926,12.814,22.588,23.969,36.618,32.258c7.09,4.196,14.669,7.74,22.561,10.542
					c1.537,0.531,11.554,3.116,17.298,4.534l4.147,1.023l-0.114-4.271c-0.204-7.669-0.331-14.579,0.191-21.503
					c1.124-14.929,12.703-21.456,23.644-21.378c10.797,0.115,22.785,7.096,23.597,22.156c0.335,6.149,0.568,12.778,0.712,20.266
					l0.079,4.017l3.913-0.907c1.816-0.422,3.637-0.866,5.46-1.361l1.121-0.315c4.608-1.351,9.013-2.909,13.47-4.765
					c15.581-6.501,30.159-16.291,42.163-28.316c24.08-24.213,37.889-57.658,37.889-91.76
					C389.297,153.82,352.312,103.83,297.266,87.014z M346.795,298.577c-11.403,11.423-25.254,20.726-40.053,26.901
					c-4.235,1.762-8.421,3.243-12.762,4.516l-1.058,0.297c-0.433,0.118-0.865,0.232-1.297,0.343
					c-0.146-5.938-0.356-11.346-0.631-16.433c-1.039-19.246-16.295-28.169-30.03-28.314c-13.51-0.044-28.775,8.368-30.208,27.398
					c-0.44,5.852-0.434,11.81-0.307,17.884c-5.958-1.507-11.772-3.047-12.569-3.322c-7.467-2.653-14.667-6.016-21.399-10.001
					c-13.33-7.875-25.356-18.47-34.784-30.64c-16.764-21.622-25.994-48.539-25.994-75.793c0-54.069,35.795-102.359,87.302-118.144
					c9.708,10.279,23.226,16.134,37.412,16.134c13.907,0,27.226-5.643,36.876-15.554c51.226,16.54,85.493,63.531,85.493,117.564
					C382.786,243.806,369.666,275.578,346.795,298.577z"/>
			</g>
		</g>
	</g>
	<g>
		<g>
			<path class="st2" d="M290.994,314.211c-1.037-19.257-16.297-28.185-30.039-28.331c-0.112-0.001-0.225-0.002-0.337-0.002
				c-13.457,0-28.445,8.529-29.863,27.401c-0.565,7.537-0.392,15.246-0.225,22.702c0.081,3.569,0.161,7.129,0.161,10.657v92.501
				h6.511v-92.501c0-3.577-0.081-7.184-0.163-10.803c-0.163-7.3-0.333-14.846,0.21-22.068c1.121-14.927,12.703-21.448,23.637-21.375
				c10.799,0.114,22.794,7.1,23.604,22.17c1.021,19.006,0.871,38.546,0.725,57.443c-0.053,6.84-0.106,13.67-0.106,20.479
				c0,33.475-1.585,83.018-5.127,118.237l6.477,0.651c3.565-35.443,5.161-85.25,5.161-118.888c0-6.792,0.053-13.605,0.106-20.428
				C291.874,353.06,292.026,333.417,290.994,314.211z"/>
		</g>
	</g>
	<g>
		<g>
			<path class="st2" d="M290.994,314.202c-1.039-19.247-16.295-28.169-30.03-28.315c-13.51-0.044-28.775,8.368-30.208,27.398
				c-0.542,7.22-0.407,14.606-0.203,22.166l6.507-0.174c-0.204-7.669-0.331-14.579,0.191-21.503
				c1.113-14.8,12.484-21.379,23.357-21.379c0.095,0,0.191,0.001,0.286,0.001c10.795,0.115,22.785,7.097,23.597,22.157
				c0.335,6.147,0.568,12.776,0.712,20.265l6.511-0.125C291.568,327.127,291.333,320.423,290.994,314.202z"/>
		</g>
	</g>
	<g>
		<g>
			<path class="st2" d="M241.275,292.433l4.074,5.078c8.699-6.973,22.357-6.848,31.087,0.286l4.121-5.042
				C269.531,283.749,252.274,283.61,241.275,292.433z"/>
		</g>
	</g>
</g>
</svg>
