<svg xmlns="http://www.w3.org/2000/svg" viewBox="0 0 48 48"><defs><style>.cls-1{fill:#fc6;}.cls-2{fill:#ffde76;}.cls-3{fill:#edb996;}.cls-4{fill:#f6ccaf;}.cls-5{fill:#a87e6b;}.cls-6{fill:#be927c;}</style></defs><title>box exchange  money</title><g id="box_exchange_money" data-name="box exchange  money"><path class="cls-1" d="M21,11a10,10,0,0,1-2,6c-5.76,7.67-18,3.54-18-6A10,10,0,0,1,5,3S5,3,5,3A10,10,0,0,1,21,11Z"/><path class="cls-2" d="M21,11a10,10,0,0,1-2,6A10,10,0,0,1,5,3,10,10,0,0,1,21,11Z"/><rect class="cls-3" x="29" y="29" width="18" height="18"/><path class="cls-4" d="M47,29c0,16.82-.1,16,0,16-7.54,0-15-5.64-15-16Z"/><rect class="cls-5" x="35" y="29" width="6" height="4"/><path class="cls-6" d="M41,29v3H39a3,3,0,0,1-3-3Z"/><path d="M11,22A11,11,0,1,0,0,11,11,11,0,0,0,11,22ZM11,2a9,9,0,1,1-9,9A9,9,0,0,1,11,2Z"/><path d="M47,28H29a1,1,0,0,0-1,1V47a1,1,0,0,0,1,1H47a1,1,0,0,0,1-1V29A1,1,0,0,0,47,28Zm-7,2v2H36V30Zm6,16H30V30h4v3a1,1,0,0,0,1,1h6a1,1,0,0,0,1-1V30h4Z"/><path d="M35,42H33a1,1,0,0,0,0,2h2A1,1,0,0,0,35,42Z"/><path d="M11,14a1,1,0,0,1-1-1,1,1,0,0,0-1-1c-1.66,0-1.21,3,1,3.82a1,1,0,1,0,2,0A3,3,0,0,0,11,10a1,1,0,1,1,1-1,1,1,0,0,0,1,1c1.66,0,1.21-3-1-3.82a1,1,0,1,0-2,0A3,3,0,0,0,11,12,1,1,0,0,1,11,14Z"/><path d="M24,44A20,20,0,0,1,4.08,25.49l.21.22a1,1,0,0,0,1.42-1.42l-2-2a1,1,0,0,0-1.42,0l-2,2a1,1,0,0,0,1.42,1.42l.34-.34A22,22,0,0,0,24,46,1,1,0,0,0,24,44Z"/><path d="M24,4A20,20,0,0,1,43.92,22.51l-.21-.22a1,1,0,0,0-1.42,1.42c3.08,3.07,2.33,3.09,5.42,0a1,1,0,0,0-1.42-1.42l-.34.34A22,22,0,0,0,24,2,1,1,0,0,0,24,4Z"/></g></svg>