<svg xmlns="http://www.w3.org/2000/svg" viewBox="0 0 512 512"><defs><style>.cls-1{fill:#524896;}.cls-2{fill:#3e6e66;}.cls-3{fill:#477d73;}.cls-4{fill:#2a365f;}.cls-5{fill:#2f3b71;}.cls-10,.cls-6{fill:none;stroke-linecap:round;stroke-miterlimit:10;stroke-width:10px;}.cls-6{stroke:#fff;}.cls-7{fill:#e5be3d;}.cls-8{fill:#f6ea49;}.cls-9{fill:#db9932;}.cls-10{stroke:#db9932;}.cls-11{fill:#ac3030;}.cls-12{fill:#8f2f2f;}.cls-13{fill:#cf4849;}.cls-14{fill:#d36e74;}.cls-15{fill:#f5ec8b;}</style></defs><title>Gifts</title><g id="BULINE"><circle class="cls-1" cx="256" cy="256" r="256"/></g><g id="Icons"><path class="cls-2" d="M500.66,75.13V290.87A19.12,19.12,0,0,1,481.54,310H127.28a19.12,19.12,0,0,1-19.12-19.13V75.13A19.12,19.12,0,0,1,127.28,56H481.54A19.12,19.12,0,0,1,500.66,75.13Z"/><path class="cls-3" d="M500.66,75.13V290.87A19.12,19.12,0,0,1,481.54,310H204.25a19.13,19.13,0,0,1-19.13-19.13V75.13A19.13,19.13,0,0,1,204.25,56H481.54A19.12,19.12,0,0,1,500.66,75.13Z"/><path class="cls-2" d="M434,191.63V310H403.84V219.13A19.12,19.12,0,0,0,384.72,200H108.16V171.41h77v1.09H414.83A19.12,19.12,0,0,1,434,191.63Z"/><rect class="cls-4" x="108.16" y="105.41" width="392.5" height="66"/><rect class="cls-5" x="185.12" y="105.41" width="315.54" height="66"/><line class="cls-6" x1="278.25" y1="230.47" x2="465.25" y2="230.47"/><line class="cls-6" x1="359.25" y1="264.41" x2="465.25" y2="264.41"/><path class="cls-7" d="M403.84,219.13V434.87A19.12,19.12,0,0,1,384.72,454H30.46a19.12,19.12,0,0,1-19.12-19.13V219.13A19.12,19.12,0,0,1,30.46,200H384.72A19.12,19.12,0,0,1,403.84,219.13Z"/><path class="cls-8" d="M403.84,219.13V434.87A19.12,19.12,0,0,1,384.72,454H107.43A19.13,19.13,0,0,1,88.3,434.87V219.13A19.13,19.13,0,0,1,107.43,200H384.72A19.12,19.12,0,0,1,403.84,219.13Z"/><rect class="cls-9" x="319.48" y="363.03" width="59.98" height="51.8" rx="14.5"/><line class="cls-10" x1="326.45" y1="429.07" x2="372.49" y2="429.07"/><line class="cls-10" x1="336.52" y1="443" x2="361.82" y2="443"/><rect class="cls-11" x="117.59" y="200" width="55" height="254"/><rect class="cls-12" x="11.34" y="299.5" width="392.5" height="55"/><rect class="cls-11" x="88.3" y="299.5" width="315.54" height="55"/><path class="cls-13" d="M147,279.78c0-45.12-37.26-58.5-55.08-62.32a30.2,30.2,0,0,0-34.23,45.75,22.28,22.28,0,0,1-.12,24.92A30,30,0,0,0,52.49,305c0,16.89,14.59,30.3,31.48,30.11C149.12,334.45,147,279.78,147,279.78Z"/><path class="cls-11" d="M143.12,278.68c0-33.37-27.56-43.27-40.74-46.09a22.34,22.34,0,0,0-25.32,33.84A16.48,16.48,0,0,1,77,284.87a22.24,22.24,0,0,0-3.79,12.5c0,12.49,10.8,22.41,23.29,22.27C144.66,319.12,143.12,278.68,143.12,278.68Z"/><path class="cls-13" d="M143.14,279.78c0-45.12,37.26-58.5,55.07-62.32a30.21,30.21,0,0,1,34.24,45.75,22.28,22.28,0,0,0,.12,24.92A30,30,0,0,1,237.69,305c0,16.89-14.59,30.3-31.48,30.11C141.06,334.45,143.14,279.78,143.14,279.78Z"/><path class="cls-11" d="M147.06,278.68c0-33.37,27.56-43.27,40.74-46.09a22.34,22.34,0,0,1,25.32,33.84,16.48,16.48,0,0,0,.09,18.44,22.24,22.24,0,0,1,3.79,12.5c0,12.49-10.8,22.41-23.29,22.27C145.52,319.12,147.06,278.68,147.06,278.68Z"/><path class="cls-13" d="M147.06,278.68,90.26,435.11a2.15,2.15,0,0,0,3.12,2.58L107,429.61a13.08,13.08,0,0,1,17.53,4l1.55,2.3a2.15,2.15,0,0,0,3.92-1Z"/><path class="cls-13" d="M143.77,278.68l56.79,156.43a2.15,2.15,0,0,1-3.12,2.58l-13.61-8.08a13.09,13.09,0,0,0-17.54,4l-1.55,2.3a2.15,2.15,0,0,1-3.92-1Z"/><path class="cls-13" d="M172.23,279.77a25.17,25.17,0,1,1-1.5-8.57A24.87,24.87,0,0,1,172.23,279.77Z"/><path class="cls-14" d="M170.73,271.2a25.19,25.19,0,0,1-47.37,0,25.19,25.19,0,0,1,47.37,0Z"/><rect class="cls-15" x="252.98" y="216" width="133" height="47" rx="9"/></g></svg>