<?xml version="1.0" encoding="utf-8"?>
<!-- Generator: Adobe Illustrator 23.0.3, SVG Export Plug-In . SVG Version: 6.00 Build 0)  -->
<svg version="1.1" xmlns="http://www.w3.org/2000/svg" xmlns:xlink="http://www.w3.org/1999/xlink" x="0px" y="0px"
	 viewBox="0 0 256 256" style="enable-background:new 0 0 256 256;" xml:space="preserve">
<style type="text/css">
	.st0{fill:#878787;}
	.st1{fill:#F2E1D6;}
	.st2{fill:#FFFFFF;}
	.st3{fill:#F0C020;}
	.st4{fill:#F9E5AF;}
	.st5{fill:#72C1E8;}
	.st6{fill:#C5E5FF;}
	.st7{fill:#13BF6D;}
	.st8{fill:#76FFBA;}
	.st9{fill:#EFEFEF;}
	.st10{fill:#FC5D3D;}
	.st11{fill:#FFCBC2;}
	.st12{fill:#FFB69F;}
	.st13{fill:#AFAFAF;}
	.st14{fill:#7C7B7A;}
	.st15{fill:#D6C0B4;}
	.st16{fill:#7A7380;}
	.st17{fill:#F0AB20;}
	.st18{fill:#FBE0E2;}
	.st19{fill:#4C4945;}
	.st20{fill:#68B0D4;}
	.st21{fill:#B35034;}
	.st22{fill:#EDAF85;}
	.st23{fill:#139C6D;}
</style>
<g id="Layer_2">
</g>
<g id="Layer_1">
	<g>
		<g>
			<g>
				<g>
					<path class="st5" d="M151.801,20.448h-47.603l21.571-14.697c1.345-0.917,3.117-0.917,4.461,0L151.801,20.448z"/>
				</g>
				<g>
					<g>
						<path class="st5" d="M225.84,70.876v105h-53.23c-8.61-15.79-25.35-26.5-44.61-26.5c-19.23,0-35.99,10.7-44.61,26.5H30.16v-105
							l32.59-22.2v44.24l63.04,42.63c1.33,0.9,3.09,0.9,4.42,0l63.04-42.63v-44.24L225.84,70.876z"/>
					</g>
					<g>
						<path class="st3" d="M193.25,24.4v68.52l-63.04,42.63c-1.33,0.9-3.09,0.9-4.42,0L62.75,92.92V24.4c0-2.18,1.77-3.95,3.96-3.95
							h122.58C191.48,20.45,193.25,22.22,193.25,24.4z"/>
					</g>
				</g>
				<g>
					<g>
						<path class="st6" d="M215,169.026h-33.96c-1.381,0-2.5-1.119-2.5-2.5s1.119-2.5,2.5-2.5h31.46v-71.17
							c0-1.381,1.119-2.5,2.5-2.5s2.5,1.119,2.5,2.5v73.67C217.5,167.907,216.381,169.026,215,169.026z M171.04,169.026h-5
							c-1.381,0-2.5-1.119-2.5-2.5s1.119-2.5,2.5-2.5h5c1.381,0,2.5,1.119,2.5,2.5S172.421,169.026,171.04,169.026z"/>
					</g>
					<g>
						<path class="st6" d="M89.95,169.026H40.28c-1.381,0-2.5-1.119-2.5-2.5v-50.33c0-1.381,1.119-2.5,2.5-2.5s2.5,1.119,2.5,2.5
							v47.83h47.17c1.381,0,2.5,1.119,2.5,2.5S91.331,169.026,89.95,169.026z M40.28,108.696c-1.381,0-2.5-1.119-2.5-2.5v-13.34
							c0-1.381,1.119-2.5,2.5-2.5s2.5,1.119,2.5,2.5v13.34C42.78,107.577,41.661,108.696,40.28,108.696z"/>
					</g>
				</g>
				<g>
					<g>
						<path class="st4" d="M183.108,86.228c-1.381,0-2.5-1.119-2.5-2.5v-4.524c0-1.381,1.119-2.5,2.5-2.5s2.5,1.119,2.5,2.5v4.524
							C185.608,85.109,184.489,86.228,183.108,86.228z M183.108,71.704c-1.381,0-2.5-1.119-2.5-2.5V33.23h-15.026
							c-1.381,0-2.5-1.119-2.5-2.5s1.119-2.5,2.5-2.5h17.526c1.381,0,2.5,1.119,2.5,2.5v38.474
							C185.608,70.585,184.489,71.704,183.108,71.704z"/>
					</g>
					<g>
						<path class="st4" d="M72.892,86.228c-1.381,0-2.5-1.119-2.5-2.5v-4.524c0-1.381,1.119-2.5,2.5-2.5s2.5,1.119,2.5,2.5v4.524
							C75.392,85.109,74.272,86.228,72.892,86.228z M72.892,71.704c-1.381,0-2.5-1.119-2.5-2.5V30.73c0-1.381,1.119-2.5,2.5-2.5
							h17.526c1.381,0,2.5,1.119,2.5,2.5s-1.119,2.5-2.5,2.5H75.392v35.974C75.392,70.585,74.272,71.704,72.892,71.704z"/>
					</g>
				</g>
				<g>
					<path class="st10" d="M125.808,70.684l-21.757,5.325V60.83c0-1.358,1.105-2.463,2.463-2.463h42.971
						c1.358,0,2.463,1.105,2.463,2.463v12.654l-19.917,4.623L125.808,70.684z"/>
				</g>
				<g>
					<path class="st10" d="M106.515,99.63c-1.358,0-2.463-1.105-2.463-2.463V86.284l19.159-4.69l6.187,7.369l22.552-5.232v13.436
						c0,1.358-1.105,2.463-2.463,2.463H106.515z"/>
				</g>
			</g>
			<g>
				<path class="st3" d="M172.61,175.876c-8.61-15.79-25.35-26.5-44.61-26.5c-19.23,0-35.99,10.7-44.61,26.5
					c-3.93,7.21-6.17,15.48-6.17,24.28c0,28.09,22.77,50.79,50.78,50.79c28.05,0,50.78-22.74,50.78-50.79
					C178.78,191.356,176.54,183.086,172.61,175.876z"/>
				<g>
					<g>
						<path class="st10" d="M111.365,180.964c18.325,0,7.496,0,33.271,0c3.332,0,5.959-2.713,5.959-5.959
							c0-3.292-2.667-5.959-5.959-5.959h-33.271c-3.339,0-5.959,2.72-5.959,5.959C105.406,178.297,108.073,180.964,111.365,180.964z
							"/>
					</g>
					<g>
						<path class="st10" d="M144.637,219.364c-25.454,0-14.81,0-33.271,0c-3.287,0-5.959,2.666-5.959,5.959
							c0,3.292,2.667,5.959,5.959,5.959h33.271c3.287,0,5.959-2.666,5.959-5.959C150.595,222.031,147.929,219.364,144.637,219.364z"
							/>
					</g>
					<g>
						<path class="st1" d="M135.596,200.169c3.673,2.1,6.154,6.047,6.154,10.589v8.606h-27.498v-8.606
							c0-4.543,2.481-8.489,6.154-10.589c-3.673-2.11-6.154-6.056-6.154-10.599v-8.606h27.498v8.606
							C141.75,194.113,139.269,198.059,135.596,200.169z"/>
					</g>
				</g>
			</g>
		</g>
		<path d="M189.78,144.786c0.903-1.047,0.787-2.627-0.261-3.53c-1-0.87-2.66-0.74-3.52,0.26c-0.9,1.05-0.79,2.63,0.26,3.53
			C187.28,145.929,188.885,145.833,189.78,144.786z"/>
		<path d="M104.646,78.438l20.247-4.956l5.224,6.231c0.608,0.725,1.572,1.042,2.481,0.829l19.916-4.623
			c1.133-0.263,1.935-1.272,1.935-2.435V60.83c0-2.737-2.227-4.964-4.963-4.964h-4.669v-5.858c0-9.273-7.544-16.817-16.816-16.817
			s-16.816,7.544-16.816,16.817v5.858h-4.669c-2.737,0-4.964,2.227-4.964,4.964v15.18C101.551,77.629,103.069,78.822,104.646,78.438
			z M116.184,50.008c0-6.516,5.301-11.817,11.816-11.817s11.816,5.301,11.816,11.817v5.858h-23.633V50.008z M149.448,60.83v10.668
			l-16.486,3.827l-5.237-6.247c-0.615-0.733-1.589-1.048-2.511-0.822l-18.671,4.57l-0.028-11.959
			C121.766,60.853,133.902,60.843,149.448,60.83z"/>
		<path d="M106.515,102.13h42.971c2.736,0,4.963-2.227,4.963-4.963V83.731c0-1.598-1.483-2.796-3.065-2.436l-21.057,4.886
			l-5.202-6.194c-0.61-0.729-1.583-1.048-2.509-0.821l-19.159,4.69c-1.118,0.274-1.905,1.276-1.905,2.428v10.882
			C101.551,99.903,103.777,102.13,106.515,102.13z M106.551,88.246l15.744-3.854l5.188,6.178c0.604,0.72,1.558,1.041,2.479,0.828
			l19.494-4.523l0.028,10.254h-42.935V88.246z"/>
		<path d="M144.25,183.464c5.504,0,8.846-4.121,8.846-8.459c0-4.664-3.795-8.458-8.459-8.458h-33.271
			c-4.664,0-8.459,3.794-8.459,8.458c0,4.357,3.356,8.459,8.846,8.459v6.105c0,4.031,1.674,7.851,4.521,10.596
			c-2.847,2.739-4.521,6.558-4.521,10.592v6.105c-5.504,0-8.846,4.121-8.846,8.459c0,4.664,3.795,8.459,8.459,8.459h33.271
			c4.664,0,8.459-3.795,8.459-8.459c0-4.357-3.356-8.459-8.846-8.459v-6.105c0-4.035-1.674-7.853-4.521-10.592
			c2.847-2.745,4.521-6.565,4.521-10.596V183.464z M107.906,175.005c0-1.907,1.552-3.458,3.459-3.458h33.271
			c1.907,0,3.459,1.551,3.459,3.458s-1.552,3.459-3.459,3.459c-11.076,0-22.13,0-33.271,0
			C109.458,178.464,107.906,176.913,107.906,175.005z M148.096,225.323c0,1.907-1.552,3.459-3.459,3.459h-33.271
			c-1.907,0-3.459-1.552-3.459-3.459s1.552-3.459,3.459-3.459c11.076,0,22.13,0,33.271,0
			C146.544,221.864,148.096,223.415,148.096,225.323z M116.752,216.864v-6.105c0-3.467,1.876-6.692,4.896-8.419
			c1.675-0.959,1.676-3.379,0.004-4.338c-3.022-1.736-4.899-4.967-4.899-8.431v-6.105h22.498v6.105c0,3.464-1.877,6.695-4.899,8.431
			c-1.674,0.961-1.669,3.381,0.004,4.338c3.02,1.727,4.896,4.952,4.896,8.419v6.105H116.752z"/>
		<path d="M131.64,3.685c-2.211-1.509-5.068-1.509-7.277-0.001L103.425,17.95H66.71c-3.563,0-6.46,2.894-6.46,6.45v22.959
			l-31.5,21.458c-0.649,0.439-1.091,1.248-1.09,2.066v30.563c0,1.38,1.12,2.5,2.5,2.5s2.5-1.12,2.5-2.5V75.59l61.633,41.678
			L32.66,170.42v-48.974c0-1.38-1.12-2.5-2.5-2.5s-2.5,1.12-2.5,2.5v54.43c0,1.288,1.05,2.501,2.501,2.501
			c0.006,0,0.011-0.001,0.017-0.001h49.207c-3.048,6.819-4.666,14.267-4.666,21.78c0,29.494,23.889,53.29,53.28,53.29
			c20.358,0,38.542-11.493,47.53-29.18c0.619-1.23,0.13-2.73-1.101-3.35c-1.21-0.62-2.75-0.11-3.36,1.09
			c-8.289,16.31-24.789,26.44-43.069,26.44c-26.775,0-48.28-21.732-48.28-48.29c0-8.06,2.03-16.04,5.86-23.08
			c8.489-15.54,24.739-25.2,42.42-25.2c26.702,0,48.28,21.674,48.28,48.28c0,1.2-0.051,2.43-0.141,3.66
			c-0.099,1.332,0.885,2.574,2.311,2.68c1.38,0.11,2.58-0.94,2.68-2.3c0,0,0.15-1.854,0.15-4.04c0-7.52-1.617-14.968-4.671-21.78
			h49.23c1.359,0,2.5-1.137,2.5-2.5V70.883c0.001-0.861-0.465-1.645-1.09-2.066l-31.5-21.458V24.4c0-3.556-2.897-6.45-6.46-6.45
			h-36.715L131.64,3.685z M127.179,7.815c0.49-0.335,1.15-0.335,1.645,0.001l14.869,10.131h-31.385L127.179,7.815z M60.25,88.212
			L34.613,70.875L60.25,53.41V88.212z M124.388,137.62c2.118,1.428,4.859,1.502,7.086,0.079c0.044-0.029,0.093-0.048,0.137-0.078
			l0.001-0.001c0.001-0.001,0.002-0.001,0.004-0.002l25.805-17.45l21.269,18.349c1.006,0.872,2.594,0.8,3.521-0.26
			c0.907-1.053,0.782-2.631-0.26-3.53l-20.246-17.456l61.635-41.68v94.833l-26.24-22.637c-1.01-0.87-2.66-0.74-3.53,0.26
			c-0.903,1.071-0.784,2.611,0.261,3.53l25.287,21.8h-45.048c-9.439-16.19-26.835-26.5-46.069-26.5
			c-18.983,0-36.487,10.112-46.028,26.433c-0.013,0.023-0.029,0.044-0.042,0.067H36.889l61.695-53.206L124.388,137.62z
			 M221.393,70.871L195.75,88.212V53.409L221.393,70.871z M190.75,24.4c0,10.52,0,62.233,0,67.193l-61.935,41.883
			c-0.489,0.327-1.144,0.327-1.627,0.002L65.25,91.593V24.4c0-0.799,0.655-1.45,1.46-1.45h122.58
			C190.095,22.95,190.75,23.601,190.75,24.4z"/>
		<path d="M179.33,214.506v-0.01c0.353-1.33-0.411-2.696-1.74-3.07c-1.31-0.36-2.72,0.44-3.08,1.74c-0.37,1.33,0.41,2.71,1.74,3.08
			C177.604,216.616,178.967,215.813,179.33,214.506z"/>
		<circle cx="30.16" cy="111.446" r="2.5"/>
	</g>
</g>
</svg>
