<svg version="1.1" id="Layer_2" xmlns="http://www.w3.org/2000/svg" x="0" y="0" viewBox="0 0 80.3 80.3" style="enable-background:new 0 0 80.3 80.3" xml:space="preserve"><style>.st4{fill:#fff}.st6{fill:#0c2c48}.st37{fill:#798287}</style><circle cx="40.2" cy="40.2" r="40.2" style="fill:#f8a06d"/><path class="st6" d="M38.6 34.2h1.3V60h-1.3z"/><ellipse class="st4" cx="23.1" cy="18" rx="10.3" ry="4.8"/><path d="M46 51.5c0 .4-.4.8-.8.8H33.4c-.4 0-.8-.4-.8-.8v-9.9c0-.4.4-.8.8-.8h11.9c.4 0 .8.4.8.8v9.9z" style="fill:#55ab99"/><path class="st6" d="M34.8 46.6c0-.6.4-1.1 1-1.1s1 .4 1 1.1c0 .6-.4 1.1-1 1.1-.6-.1-1-.5-1-1.1zM38.3 46.6c0-.6.4-1.1 1-1.1s1 .4 1 1.1c0 .6-.4 1.1-1 1.1-.6-.1-1-.5-1-1.1zM41.8 46.6c0-.6.4-1.1 1-1.1s1 .4 1 1.1c0 .6-.4 1.1-1 1.1-.6-.1-1-.5-1-1.1z"/><path d="M46 35.5c0 .4-.4.8-.8.8H33.4c-.4 0-.8-.4-.8-.8v-9.9c0-.4.4-.8.8-.8h11.9c.4 0 .8.4.8.8v9.9z" style="fill:#ed6b5a"/><path class="st6" d="M34.8 30.5c0-.6.4-1.1 1-1.1s1 .4 1 1.1c0 .6-.4 1.1-1 1.1s-1-.5-1-1.1zM38.3 30.5c0-.6.4-1.1 1-1.1s1 .4 1 1.1c0 .6-.4 1.1-1 1.1s-1-.5-1-1.1zM41.8 30.5c0-.6.4-1.1 1-1.1s1 .4 1 1.1c0 .6-.4 1.1-1 1.1s-1-.5-1-1.1z"/><path d="M46 67.6c0 .4-.4.8-.8.8H33.4c-.4 0-.8-.4-.8-.8v-9.9c0-.4.4-.8.8-.8h11.9c.4 0 .8.4.8.8v9.9z" style="fill:#698391"/><path class="st6" d="M34.8 62.6c0-.6.4-1.1 1-1.1s1 .4 1 1.1c0 .6-.4 1.1-1 1.1s-1-.5-1-1.1zM38.3 62.6c0-.6.4-1.1 1-1.1s1 .4 1 1.1c0 .6-.4 1.1-1 1.1s-1-.5-1-1.1zM41.8 62.6c0-.6.4-1.1 1-1.1s1 .4 1 1.1c0 .6-.4 1.1-1 1.1s-1-.5-1-1.1z"/><g><path class="st6" d="M30.8 31.1h-5c-2 0-3.7-1.8-3.7-4v-2.7h1.4v2.7c0 1.4 1 2.6 2.3 2.6h5v1.4z"/></g><g><path class="st6" d="M61.3 53.2h-1.4v-3c0-1.3-1-2.3-2.3-2.3H48v-1.4h9.7c2 0 3.7 1.7 3.7 3.7v3z"/></g><g><path class="st6" d="M53.4 55h16.3v10H53.4z"/></g><g><path class="st6" d="M57.6 45.4H48V44h9.7c1.3 0 2.3-1 2.3-2.3v-3h1.4v3c-.1 2-1.7 3.7-3.8 3.7z"/></g><g><path class="st6" d="M31.4 63.1H18.8c-2 0-3.7-1.8-3.7-4v-2.7h1.4v2.7c0 1.4 1 2.6 2.3 2.6h12.6v1.4z"/></g><g><path style="fill:#bfd9e6" d="M68.5 37.6H53.7V22.8h10l4.8 4.5z"/><path class="st4" d="M68.5 27.3h-4.8v-4.5z"/><path class="st37" d="M55.9 26.2H63v1.2h-7.1zM55.9 29.6h10.4v1.2H55.9zM55.9 33h10.4v1.2H55.9z"/></g><g><path class="st37" d="M17.1 15.9h12.5v1.3H17.1zM17.1 18.4h12.5v1.3H17.1z"/></g><g><path style="fill:#a3b9c4" d="M23.8 55.1H9V40.3h9.9l4.9 4.6z"/><path class="st4" d="M23.8 44.9H19v-4.6zM11.2 43.7h7.1v1.2h-7.1zM11.2 47.2h10.4v1.2H11.2zM11.2 50.6h10.4v1.2H11.2z"/></g><g><path class="st37" d="M55.8 57.7h11.5v1.2H55.8zM55.8 60.4h11.5v1.2H55.8z"/></g></svg>
