<svg id="artwork" xmlns="http://www.w3.org/2000/svg" viewBox="0 0 512 512"><title>Restock</title><g id="Restock"><polygon points="422.74 181.6 422.74 353.97 273.46 440.15 202.63 399.25 192.13 393.19 124.18 353.96 124.18 181.6 273.46 95.4 422.74 181.6" style="fill:#158c8c"/><path d="M215,353a92.22,92.22,0,0,1-12.34,46.23l-10.5-6.06L124.18,354V260.35A92.7,92.7,0,0,1,215,353Z" style="fill:#0f7c79"/><path d="M118.61,137.55l-8.48-8.48L87.34,151.85V67.48h383V464.85h-346V424.27h-4.67a70,70,0,1,0-70-70,70,70,0,0,0,70,70h-7.31v52.58h370V55.48h-407V152L52.56,129.17l-8.48,8.48,37.21,37.22Z" style="fill:#f47a53"/><polygon points="422.73 181.17 273.46 267.36 124.19 181.17 273.46 94.98 422.73 181.17" style="fill:#3dc9c9"/><polygon points="370.08 211.7 370.08 384.07 325.1 410.04 325.1 236.49 176.84 150.89 220.8 125.51 370.08 211.7" style="fill:#def1f9"/><polygon points="99.92 402.89 66.8 369.76 75.28 361.27 99.92 385.92 163.92 321.92 172.41 330.4 99.92 402.89" style="fill:#fff"/><path d="M118.28,430.27a76,76,0,0,0,63.93-35l91.25,52.68,156-90.08V177.71l-156-90.09-156,90.09v88.35h12v-74.5l138,79.68V430.61l-79.57-45.94a75.95,75.95,0,1,0-69.61,45.6ZM364.64,222.06V381.43l-33,19V241.1Zm-37.95,8.06-138-79.68,32-18.46,138,79.69Zm-12,6.93-41.23,23.8-138-79.68,41.23-23.81Zm5,11V407.39l-40.21,23.22V271.24Zm57,126.47V215.13l40.83-23.57V350.93Zm34.83-193.33-40.83,23.57-138-79.68,40.83-23.58ZM118.28,290.35a64,64,0,1,1-64,64A64,64,0,0,1,118.28,290.35Z"/><path d="M47.07,291.06l9,8a83,83,0,0,1,41.79-25.44L94.89,262A94.85,94.85,0,0,0,47.07,291.06Z"/><path d="M29.54,319.68,40.72,324a83.09,83.09,0,0,1,8.49-16.2l-10-6.71A95.61,95.61,0,0,0,29.54,319.68Z"/><path d="M76.47,439.85l5.28-10.77a83.14,83.14,0,0,1-46.62-71.33l-12,.49A95.13,95.13,0,0,0,76.47,439.85Z"/></g></svg>