<?xml version="1.0" encoding="utf-8"?>
<!-- Generator: Adobe Illustrator 19.2.1, SVG Export Plug-In . SVG Version: 6.00 Build 0)  -->
<svg version="1.1" xmlns="http://www.w3.org/2000/svg" xmlns:xlink="http://www.w3.org/1999/xlink" x="0px" y="0px"
	 viewBox="0 0 512 512" style="enable-background:new 0 0 512 512;" xml:space="preserve">
<style type="text/css">
	.st0{display:none;}
	.st1{fill:#75A897;}
	.st2{fill:#D5872A;}
	.st3{fill:#5082A9;}
	.st4{fill:#E09C6F;}
	.st5{fill:#E4C856;}
	.st6{fill:#87B7DD;}
	.st7{fill:#B9BDC2;}
	.st8{fill:#57646E;}
	.st9{fill:#CA6A46;}
	.st10{fill:#1F3049;}
	.st11{fill:#298063;}
	.st12{fill:#C93A3A;}
	.st13{fill:#DA8B80;}
	.st14{fill:#C9402E;}
	.st15{fill:#E29E6F;}
	.st16{fill:#A32929;}
	.st17{fill:#F5F5F5;}
	.st18{fill:#C9553E;}
	.st19{fill:#E09E9A;}
	.st20{fill:#FFFFFF;}
	.st21{fill:#E6A585;}
	.st22{fill:#4E3333;}
	.st23{fill:#2B5F87;}
	.st24{opacity:0.31;fill:#FFFFFF;}
	.st25{fill:#E6CA56;}
	.st26{fill:#4D917B;}
	.st27{fill:#B8B8B8;}
	.st28{fill:#8998A0;}
	.st29{fill:#394755;}
	.st30{fill:#F2D1B4;}
	.st31{fill:#ECE4C7;}
	.st32{fill:#F1CB58;}
	.st33{fill:#E1E1E1;}
</style>
<g id="GUIDELINES" class="st0">
</g>
<g id="Layer_9">
</g>
<g id="ICON">
	<ellipse class="st9" cx="256.4" cy="255.8" rx="256" ry="256"/>
</g>
<g id="Layer_8">
	<g>
		<g>
			<g>
				<g>
					
						<rect x="298.7" y="137.9" transform="matrix(0.7071 -0.7071 0.7071 0.7071 -28.1341 295.421)" class="st10" width="87.7" height="87.6"/>
					<polygon class="st5" points="352.7,114 265.5,105 200.7,169.7 288,178.7 					"/>
					
						<rect x="308.1" y="145" transform="matrix(0.7071 -0.7071 0.7071 0.7071 -27.4551 300.2776)" class="st23" width="81.2" height="76.6"/>
					<polygon class="st10" points="205.1,173.7 211.2,251 273.2,313 344.4,241.8 282.4,179.8 					"/>
					<g>
						<path class="st2" d="M208.7,258l6.8-6.8l-5.8-73.1l73.1,5.8l7.4-7.4l-89.2-7.1l7.1,89.3C208.2,258.6,208.4,258.3,208.7,258z"
							/>
					</g>
					<g>
						
							<rect x="357.4" y="183.4" transform="matrix(0.7071 -0.7071 0.7071 0.7071 -31.4002 318.9648)" class="st2" width="23.9" height="28"/>
						<g>
							
								<ellipse transform="matrix(0.7071 -0.7071 0.7071 0.7071 -19.4928 290.1729)" class="st6" cx="340.5" cy="168.6" rx="16.2" ry="16.2"/>
							
								<rect x="338.6" y="150" transform="matrix(0.7071 -0.7071 0.7071 0.7071 -19.4879 290.1874)" class="st23" width="3.8" height="37.2"/>
							
								<rect x="322" y="166.7" transform="matrix(0.7074 -0.7068 0.7068 0.7074 -19.5329 290.0535)" class="st23" width="37.2" height="3.8"/>
						</g>
					</g>
				</g>
			</g>
		</g>
		
			<rect x="244" y="244.3" transform="matrix(0.7071 -0.7071 0.7071 0.7071 -75.2087 314.4976)" class="st10" width="196.1" height="7.5"/>
	</g>
	<g>
		<g>
			<path class="st10" d="M108.4,251.1c12.7,2.5,25.3,5,38,7.4c-1.4-1.4-2.8-2.8-4.2-4.2c8.7,37.2,17.3,74.4,26,111.6
				c0.6,2.6,3.2,4.4,5.8,4.4c42.7,0,85.3,0,128,0c7.7,0,7.7-12,0-12c-42.7,0-85.3,0-128,0c1.9,1.5,3.9,2.9,5.8,4.4
				c-8.7-37.2-17.3-74.4-26-111.6c-0.4-1.9-2.2-3.8-4.2-4.2c-12.7-2.5-25.3-5-38-7.4C104,238,100.8,249.6,108.4,251.1L108.4,251.1z"
				/>
		</g>
		<path class="st20" d="M359.1,249.3c-49.7,0-99.5,0-149.2,0c-13.8,0-27.5,0-41.3,0c-4.1,0-6.6,3.8-5.8,7.6
			c6.1,29.3,12.1,58.7,18.2,88c0.5,2.6,3.2,4.4,5.8,4.4c42,0,84,0,126,0c2,0.2,4.1-0.6,5.3-3c15.4-29.3,30.8-58.7,46.1-88
			C366.4,254.3,363.8,249.3,359.1,249.3z M349.2,261.3c-2.6,5-5.2,9.9-7.8,14.9c-17.4,0-34.7,0-52.1,0c0-5,0-9.9,0-14.9
			c9.5,0,19,0,28.5,0C328.2,261.3,338.7,261.3,349.2,261.3z M324,309.3c-0.3,0-0.6-0.1-0.9-0.1c-11.3,0-22.5,0-33.8,0
			c0-7,0-14.1,0-21.1c12.9,0,25.7,0,38.6,0c2.4,0,4.8,0,7.2,0C331.4,295.2,327.7,302.3,324,309.3z M309.3,337.3c-6.7,0-13.4,0-20,0
			c0-5.3,0-10.7,0-16c9.5,0,18.9,0,28.4,0C314.9,326.6,312.1,331.9,309.3,337.3z M277.3,288.1c0,7,0,14.1,0,21.1
			c-16.1,0-32.1,0-48.2,0c0-7,0-14.1,0-21.1C245.2,288.1,261.2,288.1,277.3,288.1z M229.1,276.1c0-5,0-9.9,0-14.9
			c16.1,0,32.1,0,48.2,0c0,5,0,9.9,0,14.9C261.2,276.1,245.2,276.1,229.1,276.1z M217.1,309.3c-10.4,0-20.8,0-31.2,0
			c-1.5-7-2.9-14.1-4.4-21.1c11.9,0,23.7,0,35.6,0C217.1,295.2,217.1,302.2,217.1,309.3z M217.1,321.3c0,5.3,0,10.7,0,16
			c-8.5,0-16.9,0-25.4,0c-1.1-5.3-2.2-10.7-3.3-16C197.9,321.3,207.5,321.3,217.1,321.3z M229.1,321.3c16.1,0,32.1,0,48.2,0
			c0,5.3,0,10.7,0,16c-16.1,0-32.1,0-48.2,0C229.1,331.9,229.1,326.6,229.1,321.3z M217.1,261.3c0,5,0,9.9,0,14.9
			c-7.8,0-15.6,0-23.5,0c-4.6,0-9.3,0-13.9,0c-0.2,0-0.5,0-0.7,0c-1-5-2.1-9.9-3.1-14.9C189.7,261.3,203.4,261.3,217.1,261.3z"/>
		<g>
			<g>
				<circle class="st10" cx="185.1" cy="368.3" r="20"/>
				<circle class="st33" cx="185.1" cy="368.3" r="12.5"/>
				<g>
					<circle class="st10" cx="185.1" cy="368.3" r="6.3"/>
					<circle class="st33" cx="185.1" cy="368.3" r="4.9"/>
				</g>
			</g>
			<g>
				<circle class="st10" cx="293" cy="368.3" r="20"/>
				<circle class="st33" cx="293" cy="368.3" r="12.5"/>
				<g>
					<circle class="st10" cx="293" cy="368.3" r="6.3"/>
					<circle class="st33" cx="293" cy="368.3" r="4.9"/>
				</g>
			</g>
		</g>
	</g>
</g>
</svg>
