<svg xmlns="http://www.w3.org/2000/svg" viewBox="0 0 512 512"><path style="fill:#fff" d="M118.71 56.35h350.62v420.28H118.71z"/><path d="M442.81 141.49h-13v-12h13zm-25 0h-13v-12h13zm-25 0h-13v-12h13zM253.45 426.92l-30.6-30.6-24.51 24.51-12.81-91.64L277.18 342l-24.76 24.75 30.6 30.6-29.57 29.57z" style="fill:#def1f9"/><path d="M270.6 269.21c-2 8.6 9.42 21.84 5.67 29.6s-21.28 7.23-26.7 14-.92 23.7-7.73 29.14-22.23-2.73-30.12 1.08-11 20.94-19.61 22.89c-8.33 1.9-18.69-12.14-27.6-12.14s-19.27 14-27.6 12.14c-8.06-1.83-11.42-17-18.2-22V146.08c6.78-5 10.14-20.2 18.2-22 8.33-1.9 18.69 12.14 27.6 12.14s19.27-14 27.6-12.14c8.6 2 11.85 19.15 19.61 22.89s23.34-4.33 30.12 1.08 2.3 22.33 7.73 29.14 22.9 6.11 26.7 14-7.63 21-5.67 29.6c1.89 8.34 17.93 15.32 17.93 24.23s-16.04 15.86-17.93 24.19z" style="fill:#def1f9"/><path d="M335.39 273.18A11.36 11.36 0 1 1 324 261.82a11.35 11.35 0 0 1 11.39 11.36zM419.51 273.18a11.36 11.36 0 1 1-11.36-11.36 11.35 11.35 0 0 1 11.36 11.36z" style="fill:#f47a53"/><path d="m401.83 234.79-84.14 2.57-10.16-63.43h127.23l-10.36 43.42c-2.28 9.55-11.47 16.65-22.57 17.44z" style="fill:#ffaf9f"/><path style="fill:#3e4757" d="M303.7 315.37h134.89v26.12H303.7zM303.7 365h134.89v26.12H303.7zM303.7 414.62h134.89v26.12H303.7z"/><path style="fill:#9dc0d1" d="M120.07 56.35h350.62v40.69H120.07z"/><path style="fill:#3dc9c9" d="M394.88 56.35h36.82v40.69h-36.82z"/><path d="M442.81 132.52h-13v-12h13zm-25 0h-13v-12h13zm-25 0h-13v-12h13z" style="fill:#3e4757"/><path d="M265.47 268.05c0 8.91-16 15.89-17.94 24.22-1.95 8.61 9.42 21.84 5.68 29.61s-21.29 7.22-26.7 14-.92 23.7-7.73 29.14-22.24-2.73-30.13 1.08-11 20.9-19.65 22.9c-8.33 1.89-18.69-12.15-27.59-12.15s-19.27 14-27.6 12.15c-8.61-2-11.85-19.15-19.61-22.9s-23.31 4.33-30.09-1.1-2.29-22.33-7.73-29.14-22.89-6.11-26.7-14 7.63-21 5.68-29.61c-1.9-8.33-17.94-15.31-17.94-24.22s16-15.89 17.94-24.22c2-8.61-9.42-21.84-5.68-29.61s21.29-7.22 26.7-14 .92-23.7 7.73-29.14 22.24 2.73 30.13-1.08 11-20.93 19.61-22.89c8.33-1.89 18.69 12.15 27.6 12.15s19.26-14 27.59-12.15c8.61 2 11.85 19.15 19.61 22.89s23.35-4.33 30.13 1.08 2.29 22.33 7.73 29.14 22.89 6.11 26.7 14-7.63 21-5.68 29.61c1.9 8.35 17.94 15.33 17.94 24.24z" style="fill:#ffaf9f"/><circle cx="142.84" cy="268.27" r="89.78" transform="rotate(-45 142.842 268.273)" style="fill:#f47a53"/><path transform="rotate(-45 143.9 267.325)" style="fill:#fff" d="M75.99 261.34h135.85v12H75.99z"/><path d="M109.44 264.09a25.38 25.38 0 1 1 25.37-25.37 25.41 25.41 0 0 1-25.37 25.37zm0-38.75a13.38 13.38 0 1 0 13.37 13.38 13.39 13.39 0 0 0-13.37-13.38zM176 325a25.37 25.37 0 1 1 25.38-25.37A25.4 25.4 0 0 1 176 325zm0-38.74a13.37 13.37 0 1 0 13.38 13.37A13.39 13.39 0 0 0 176 286.27z" style="fill:#fff"/><path style="fill:#3dc9c9" d="M233.43 438.6 202.82 408l-24.5 24.5-12.81-91.64 91.64 12.81-24.75 24.75 30.6 30.6-29.57 29.58z"/><path d="M124.71 103h338.62v34.82h12V50.35H112.71V126h12zm276.17-12V62.35h24.82V91zm62.45 0H437.7V62.35h25.63zm-74.45-28.65V91H124.71V62.35z"/><path d="M348.51 70.7h27.15v12h-27.15zM327.93 70.7h10.45v12h-10.45zM307.41 70.7h10.45v12h-10.45zM142.71 364.05c1.87 0 3.76-.05 5.63-.16l-.7-12c-1.63.09-3.29.14-4.93.14a83.73 83.73 0 1 1 60.37-25.72l8.65 8.32a95.72 95.72 0 1 0-69 29.4z"/><path d="M26.93 304.88c-2.21 6.38-4.72 13.6-1.63 20s10.42 9.06 16.85 11.31c3.82 1.34 8.15 2.86 9.6 4.67s2 6.43 2.46 10.48c.77 6.74 1.65 14.38 7.26 18.86s13.2 3.62 19.93 2.88c4.06-.44 8.67-.95 10.82.09s4.49 4.85 6.63 8.25c3.47 5.51 7.38 11.7 13.86 13.68v87.53h362.62V156h-12v314.63H124.71v-76.78a65.53 65.53 0 0 0 8-4.49c3.52-2.2 7.5-4.69 10-4.69s6.48 2.49 10 4.69c4.4 2.75 9.24 5.77 14.41 6.28l6.88 49.62 28.79-28.78 30.6 30.6 38.1-38.08-30.6-30.6 29-29-37.6-5.25a9.05 9.05 0 0 1 1.35-3.28c1.45-1.81 5.78-3.33 9.6-4.67 6.43-2.25 13.71-4.8 16.84-11.3s.59-13.63-1.62-20c-1.35-3.88-2.88-8.28-2.34-10.65.49-2.17 3.69-5.37 6.5-8.19 4.85-4.86 10.35-10.37 10.35-17.71s-5.5-12.84-10.34-17.69c-2.82-2.83-6-6-6.51-8.2-.54-2.37 1-6.77 2.34-10.66 2.21-6.37 4.72-13.6 1.63-20s-10.42-9.06-16.85-11.32c-3.82-1.34-8.15-2.86-9.6-4.68s-2-6.42-2.46-10.46c-.77-6.74-1.65-14.38-7.25-18.86s-13.22-3.63-19.94-2.89c-4.07.45-8.67 1-10.82-.08s-4.48-4.85-6.63-8.26c-3.64-5.79-7.78-12.35-14.87-14-6.87-1.56-13.31 2.47-19 6-3.52 2.2-7.5 4.69-10 4.69s-6.48-2.5-10-4.7c-5.68-3.55-12.11-7.58-19-6-7.09 1.61-11.23 8.17-14.87 14-2.15 3.41-4.57 7.26-6.62 8.25s-6.76.54-10.82.09c-6.73-.74-14.36-1.57-19.95 2.89s-6.41 12.12-7.2 18.86c-.46 4-1 8.63-2.46 10.47s-5.78 3.33-9.6 4.67c-6.43 2.26-13.71 4.81-16.84 11.31s-.59 13.63 1.62 20c1.35 3.89 2.88 8.29 2.34 10.66-.5 2.17-3.69 5.37-6.51 8.2-4.84 4.85-10.34 10.36-10.34 17.69s5.5 12.85 10.35 17.71c2.81 2.82 6 6 6.5 8.19.54 2.37-.99 6.77-2.34 10.65zm197 73.54L254.51 409l-21.08 21.09-30.6-30.6-20.23 20.25-10-71.84 71.83 10zM31.26 259.11c4.15-4.16 8.45-8.46 9.71-14 1.3-5.72-.73-11.58-2.7-17.25-1.38-4-3.09-8.91-2.15-10.86s6-3.78 10-5.19c5.61-2 11.41-4 15-8.52s4.32-10.66 5-16.58c.49-4.22 1.09-9.46 2.83-10.85s6.94-.8 11.14-.34c5.94.65 12.09 1.32 17.34-1.21s8.41-7.66 11.56-12.66c2.29-3.63 5.13-8.15 7.38-8.66 2-.46 6.43 2.29 10 4.5 5.13 3.2 10.43 6.52 16.37 6.52s11.23-3.32 16.36-6.52c3.53-2.21 7.93-5 10-4.5 2.25.51 5.09 5 7.38 8.66 3.15 5 6.4 10.17 11.56 12.66s11.4 1.86 17.35 1.21c4.19-.46 9.42-1 11.13.34s2.34 6.63 2.83 10.85c.68 5.92 1.38 12.05 5 16.58s9.4 6.55 15 8.52c4 1.41 9 3.16 10 5.2s-.78 6.88-2.16 10.85c-2 5.67-4 11.53-2.7 17.25 1.26 5.55 5.56 9.85 9.71 14 3 3.06 6.84 6.85 6.84 9.22s-3.79 6.17-6.84 9.23c-4.16 4.16-8.45 8.47-9.71 14-1.3 5.72.73 11.58 2.7 17.25 1.38 4 3.09 8.91 2.15 10.86s-6 3.78-10 5.19c-5.61 2-11.41 4-15 8.51a21.27 21.27 0 0 0-3.9 9.09l-61.92-8.65 6.84 49a65.07 65.07 0 0 1-6.25-3.59c-5.12-3.21-10.42-6.52-16.35-6.52s-11.24 3.31-16.36 6.52c-3.53 2.21-7.93 4.95-10 4.49-2.25-.51-5.09-5-7.38-8.65-3.15-5-6.4-10.18-11.56-12.66s-11.46-1.9-17.37-1.24c-4.2.45-9.42 1-11.13-.34s-2.34-6.63-2.83-10.85c-.68-5.92-1.38-12.05-5-16.59s-9.4-6.55-15-8.51c-4-1.41-9-3.16-10-5.2s.78-6.88 2.16-10.85c2-5.67 4-11.53 2.7-17.25-1.26-5.54-5.55-9.85-9.71-14-3.05-3.06-6.84-6.86-6.84-9.23s3.77-6.17 6.82-9.23z"/><path d="M444.59 309.37H297.7v38.12h146.89zm-12 26.12H309.7v-14.12h122.89zM444.59 359H297.7v38.12h146.89zm-12 26.12H309.7V371h122.89zM444.59 408.62H297.7v38.13h146.89zm-12 26.13H309.7v-14.13h122.89zM401.61 240.79h.24c13.82-1 25.06-9.83 28-22L442 167.93H312.41a25.9 25.9 0 0 0-25.15-19.86h-3.63v12h3.63a13.88 13.88 0 0 1 13 9.2l11.89 74.25v.66a22 22 0 0 0 4.52 13.27 17.35 17.35 0 1 0 23.8 10.37h51.11a17.36 17.36 0 1 0 33 0h9.69v-12h-96c-7.8 0-14.14-5.22-14.14-11.64v-1zM324 278.54a5.36 5.36 0 1 1 5.36-5.36 5.37 5.37 0 0 1-5.36 5.36zm89.48-5.36a5.36 5.36 0 1 1-5.36-5.36 5.36 5.36 0 0 1 5.39 5.36zm13.24-93.25-8.6 36c-1.65 6.94-8.65 12.21-17 12.85l-78.74 2.4-8.21-51.27z"/></svg>
